STARTFONT 2.1
COMMENT
COMMENT Converted from OpenType font "Q:\font stuff\winfont\HeberlingCasualNF Bold.ttf" by "otf2bdf 3.0".
COMMENT
FONT -FreeType-HeberlingCasualNF-Bold-R-Normal--50-500-72-72-P-230-ISO10646-1
SIZE 50 72 72
FONTBOUNDINGBOX 64 62 -11 -15
STARTPROPERTIES 19
FOUNDRY "FreeType"
FAMILY_NAME "HeberlingCasualNF"
WEIGHT_NAME "Bold"
SLANT "R"
SETWIDTH_NAME "Normal"
ADD_STYLE_NAME ""
PIXEL_SIZE 36
POINT_SIZE 500
RESOLUTION_X 72
RESOLUTION_Y 72
SPACING "P"
AVERAGE_WIDTH 230
CHARSET_REGISTRY "ISO10646"
CHARSET_ENCODING "1"
FONT_ASCENT 36
FONT_DESCENT 12
COPYRIGHT "Copyright (c) Nick's Fonts, 2002. All rights reserved."
_OTF_FONTFILE "Q:\font stuff\winfont\HeberlingCasualNF Bold.ttf"
_OTF_PSNAME "HeberlingCasualNF-Bold"
ENDPROPERTIES
CHARS 252
STARTCHAR 0020
ENCODING 32
SWIDTH 200 0
DWIDTH 10 0
BBX 0 0 0 0
BITMAP
ENDCHAR
STARTCHAR 0021
ENCODING 33
SWIDTH 120 0
DWIDTH 6 0
BBX 4 34 1 0
BITMAP
30
70
F0
E0
E0
E0
E0
E0
E0
E0
E0
E0
E0
E0
E0
E0
E0
E0
E0
E0
E0
E0
E0
E0
E0
E0
40
E0
E0
E0
E0
E0
E0
E0
ENDCHAR
STARTCHAR 0022
ENCODING 34
SWIDTH 260 0
DWIDTH 13 0
BBX 11 11 1 24
BITMAP
71C0
FBE0
FBE0
FBE0
FBE0
FBE0
71C0
71C0
71C0
71C0
71C0
ENDCHAR
STARTCHAR 0023
ENCODING 35
SWIDTH 540 0
DWIDTH 27 0
BBX 25 24 1 9
BITMAP
60007800
F9F9FE00
7FFBFF00
3FF38700
3FF70380
3BF70380
38F70380
38770380
38738700
3873FF00
3871FE00
38707800
38700000
3877FF80
3877FF80
3877FF80
38600000
38000000
38000000
3C000000
3C000000
3C000000
78000000
70000000
ENDCHAR
STARTCHAR 0024
ENCODING 36
SWIDTH 600 0
DWIDTH 30 0
BBX 28 34 1 2
BITMAP
001DC000
001DC000
001DC000
001DF800
001FFF00
003FFFC0
007FC7E0
00FDC0F0
01FDC070
03DDC070
039DC020
039DC000
039DC000
03DDC000
01FDC000
00FDC000
007DC000
001DE000
001DF000
001DF800
001DFC00
001DDC00
001DDC00
001DDC00
E01DDC00
E01DF800
F01DF800
7C1FF000
3FFFE000
1FFFC000
03FDC000
001DC000
001DC000
001DC000
ENDCHAR
STARTCHAR 0025
ENCODING 37
SWIDTH 740 0
DWIDTH 37 0
BBX 35 34 1 0
BITMAP
03FFFFC000
0FFFFFC000
1FFFFFC000
3C3C038000
781C038000
700E070000
700E070000
E0070F0000
E0070E0000
E0071E0000
E0071C0000
E0073C0000
E007380000
E00778F800
700E73FE00
700E77FF00
781EEF8F80
3C3CEE0380
1FF9FC01C0
0FF1DC01C0
07E3FC01E0
0003B800E0
0007B800E0
00073800E0
000F3800E0
000E3800E0
000E3801E0
001C1C01C0
001C1C01C0
00380E0380
00380F0F80
007807FF00
007003FE00
007000F800
ENDCHAR
STARTCHAR 0026
ENCODING 38
SWIDTH 780 0
DWIDTH 39 0
BBX 37 35 1 -1
BITMAP
0003FF0000
001FFFE000
007FFFF800
00FE01FC00
01F0003E00
03C0000F00
0780000700
0700000780
0700070380
07000F0380
07000E0380
07800E0380
03C00E0700
01E00F0F00
03E007FE00
07E003FC00
1F8000F800
3E00000060
3C00000070
7800000070
700001E038
E00003F038
E00007F838
E000073C38
E000071C78
E000071CF0
F00003DFE0
780003FFC0
3C0000FF80
3E00007E00
1F8000F800
07F007F000
03FFFFC000
00FFFF0000
000FF80000
ENDCHAR
STARTCHAR 0027
ENCODING 39
SWIDTH 140 0
DWIDTH 7 0
BBX 5 11 1 24
BITMAP
70
F8
F8
F8
F8
70
70
70
70
70
70
ENDCHAR
STARTCHAR 0028
ENCODING 40
SWIDTH 240 0
DWIDTH 12 0
BBX 11 45 1 -11
BITMAP
01C0
03E0
07C0
0F00
1E00
1C00
1C00
3800
3800
3800
7000
7000
7000
7000
7000
E000
E000
E000
E000
E000
E000
E000
E000
E000
E000
E000
E000
E000
E000
E000
7000
7000
7000
7000
7000
3800
3800
3800
1C00
1C00
1E00
0F00
07C0
03C0
01C0
ENDCHAR
STARTCHAR 0029
ENCODING 41
SWIDTH 240 0
DWIDTH 12 0
BBX 10 45 1 -11
BITMAP
E000
F000
F800
3C00
1E00
0E00
0E00
0700
0700
0700
0380
0380
0380
0380
0380
01C0
01C0
01C0
01C0
01C0
01C0
01C0
01C0
01C0
01C0
01C0
01C0
01C0
01C0
01C0
0380
0380
0380
0380
0380
0700
0700
0700
0E00
0E00
1E00
3C00
F800
F000
E000
ENDCHAR
STARTCHAR 002A
ENCODING 42
SWIDTH 300 0
DWIDTH 15 0
BBX 13 13 1 22
BITMAP
0700
0700
0700
0700
E738
FFF8
FFF8
3FE0
0F80
1FC0
3DE0
3DE0
38E0
ENDCHAR
STARTCHAR 002B
ENCODING 43
SWIDTH 480 0
DWIDTH 24 0
BBX 21 21 1 7
BITMAP
007000
007000
007000
007000
007000
007000
007000
007000
007000
FFFFF8
FFFFF8
FFFFF8
007000
007000
007000
007000
007000
007000
007000
007000
007000
ENDCHAR
STARTCHAR 002C
ENCODING 44
SWIDTH 180 0
DWIDTH 9 0
BBX 7 10 1 -5
BITMAP
78
FC
FE
FE
FE
7E
1E
7C
F8
70
ENDCHAR
STARTCHAR 002D
ENCODING 45
SWIDTH 220 0
DWIDTH 11 0
BBX 9 3 1 11
BITMAP
FF80
FF80
FF80
ENDCHAR
STARTCHAR 002E
ENCODING 46
SWIDTH 160 0
DWIDTH 8 0
BBX 6 6 1 -1
BITMAP
78
FC
FC
FC
FC
78
ENDCHAR
STARTCHAR 002F
ENCODING 47
SWIDTH 320 0
DWIDTH 16 0
BBX 14 44 1 -10
BITMAP
0018
001C
003C
0038
0038
0038
0070
0070
0070
0070
00E0
00E0
00E0
01E0
01C0
01C0
01C0
03C0
0380
0380
0380
0700
0700
0700
0700
0E00
0E00
0E00
1E00
1C00
1C00
1C00
3C00
3800
3800
3800
7000
7000
7000
7000
E000
E000
E000
4000
ENDCHAR
STARTCHAR 0030
ENCODING 48
SWIDTH 580 0
DWIDTH 29 0
BBX 27 36 1 -2
BITMAP
003F8000
00FFE000
01FFF000
07E0F800
07803C00
0F001E00
1E000F00
1C000700
38000380
38000380
700001C0
700001C0
700001C0
F00001C0
E00000E0
E00000E0
E00000E0
E00000E0
E00000E0
E00000E0
E00000E0
E00000E0
F00001E0
700001C0
700001C0
700001C0
38000380
38000380
1C000700
1E000F00
0F001E00
0F803C00
07E0FC00
03FFF800
00FFE000
003F8000
ENDCHAR
STARTCHAR 0031
ENCODING 49
SWIDTH 240 0
DWIDTH 12 0
BBX 11 34 1 0
BITMAP
0700
0F00
1F00
3F00
3F00
7F00
F700
E700
0700
0700
0700
0700
0700
0700
0700
0700
0700
0700
0700
0700
0700
0700
0700
0700
0700
0700
0700
0700
0700
0700
0700
1FC0
3FE0
1FC0
ENDCHAR
STARTCHAR 0032
ENCODING 50
SWIDTH 600 0
DWIDTH 30 0
BBX 28 34 1 0
BITMAP
001FE000
00FFFC00
03FFFF00
0FE01F80
1F0007C0
3E0001E0
380000E0
780000F0
70000070
E0000070
E0000070
E0000070
E0000070
E00000E0
400000E0
000001C0
000003C0
00000780
00000F00
00001E00
00003C00
0000F800
0001F000
0003C000
00078000
000F0000
003E0000
007C0000
00F80000
01E00060
03C001E0
07FFFFE0
0FFFFF80
0FFFFF00
ENDCHAR
STARTCHAR 0033
ENCODING 51
SWIDTH 640 0
DWIDTH 32 0
BBX 30 36 1 -1
BITMAP
00FE0000
03FFC000
0FFFE000
1F81E000
3C007000
38007000
00007000
0000F000
0001E000
0007C000
001FC000
003FF800
003FFE00
00007F80
00000FC0
000003E0
000000F0
00000070
00000038
00000038
0000001C
0000001C
0000001C
0000001C
0000001C
0000001C
00000038
00000038
E0000078
F00000F0
780001E0
3E0007C0
1FC03F80
0FFFFE00
01FFF800
003FC000
ENDCHAR
STARTCHAR 0034
ENCODING 52
SWIDTH 480 0
DWIDTH 24 0
BBX 22 34 1 0
BITMAP
000380
000380
000380
000380
000380
007380
007380
00F380
00E380
01E380
01C380
03C380
038380
078380
070380
0F0380
0E0380
1E0380
1C0380
3C0380
38039C
70039C
70039C
FFFFF8
FFFFF8
FFFFF8
000380
000380
000380
000380
000380
000FE0
000FE0
000FE0
ENDCHAR
STARTCHAR 0035
ENCODING 53
SWIDTH 640 0
DWIDTH 32 0
BBX 30 35 1 -1
BITMAP
01FFFF00
01FFFF00
01FFFF80
03800380
03800380
03800180
03800000
07800000
07000000
073FC000
07FFF800
07FFFE00
0FC03F80
060007C0
000001E0
000000F0
00000078
00000038
00000038
0000001C
0000001C
0000001C
0000001C
0000001C
0000001C
00000038
00000038
E0000078
F00000F0
780001E0
3E0007C0
1FC03F80
07FFFE00
01FFF800
003FC000
ENDCHAR
STARTCHAR 0036
ENCODING 54
SWIDTH 660 0
DWIDTH 33 0
BBX 31 35 1 0
BITMAP
0000F000
0007F000
001FF000
007F0000
01F80000
03E00000
07C00000
0F000000
1E000000
1E000000
3C000000
3803FC00
701FFF00
707FFFC0
F0FC07E0
E1F000F0
E3C00078
E780003C
E700001C
EF00001C
EE00000E
EE00000E
FE00000E
7E00000E
7000000E
7800000E
3800001C
3C00003C
1E000038
0F000078
07C001F0
03F80FE0
00FFFF80
007FFF00
0007F800
ENDCHAR
STARTCHAR 0037
ENCODING 55
SWIDTH 400 0
DWIDTH 20 0
BBX 18 41 1 -7
BITMAP
3FFFC0
7FFFC0
7FFFC0
700380
F00380
600700
000700
000F00
000E00
000E00
001C00
001C00
003C00
003800
003800
007800
007000
00F000
00E000
00E000
01E000
01C000
03C000
038000
038000
078000
070000
0F0000
0E0000
0E0000
1E0000
1C0000
3C0000
380000
380000
780000
700000
F00000
E00000
E00000
400000
ENDCHAR
STARTCHAR 0038
ENCODING 56
SWIDTH 640 0
DWIDTH 32 0
BBX 30 35 1 -1
BITMAP
001FC000
007FF000
00FFF800
01E03C00
03C01E00
03800E00
03800E00
03C01E00
01E03C00
00FFF800
00FFFC00
03FFFE00
0FE01F80
1F8007C0
1E0001E0
3C0000F0
78000070
70000038
F0000038
E000001C
E000001C
E000001C
E000001C
E000001C
E000001C
70000038
70000038
78000078
3C0000F0
1E0001E0
0F8007C0
07E01F80
03FFFF00
00FFFC00
001FE000
ENDCHAR
STARTCHAR 0039
ENCODING 57
SWIDTH 600 0
DWIDTH 30 0
BBX 28 35 1 -1
BITMAP
007F8000
01FFF000
07FFF800
0FC0FE00
1F001F00
3C000F80
78000780
700003C0
700001C0
E00000E0
E00000E0
E00000E0
E0000770
E0000770
E0000770
F0000F70
70000E70
78001E70
3C003C70
3E007C70
1F81F8E0
0FFFE0E0
03FFC1E0
00FF01C0
000003C0
00000380
00000780
00000F00
00001E00
00007C00
0001F800
000FF000
007FC000
00FF0000
00780000
ENDCHAR
STARTCHAR 003A
ENCODING 58
SWIDTH 160 0
DWIDTH 8 0
BBX 6 19 1 -1
BITMAP
78
FC
FC
FC
FC
78
00
00
00
00
00
00
00
78
FC
FC
FC
FC
78
ENDCHAR
STARTCHAR 003B
ENCODING 59
SWIDTH 160 0
DWIDTH 8 0
BBX 6 23 1 -5
BITMAP
78
FC
FC
FC
FC
78
00
00
00
00
00
00
00
70
F8
FC
FC
FC
7C
1C
F8
F8
E0
ENDCHAR
STARTCHAR 003C
ENCODING 60
SWIDTH 520 0
DWIDTH 26 0
BBX 24 20 1 7
BITMAP
000007
00003F
0000FF
0007FC
001FE0
00FF80
03FC00
1FF000
7F8000
FE0000
FE0000
7F8000
0FF000
03FC00
00FF80
001FE0
0007FC
0000FF
00003F
000007
ENDCHAR
STARTCHAR 003D
ENCODING 61
SWIDTH 400 0
DWIDTH 20 0
BBX 18 8 1 13
BITMAP
FFFFC0
FFFFC0
FFFFC0
000000
000000
FFFFC0
FFFFC0
FFFFC0
ENDCHAR
STARTCHAR 003E
ENCODING 62
SWIDTH 520 0
DWIDTH 26 0
BBX 24 20 1 7
BITMAP
E00000
FC0000
FF0000
3FE000
07F800
01FF00
003FC0
000FF8
0001FE
00007F
00003F
0001FE
0007F8
003FC0
00FF00
07F800
1FE000
FF0000
FC0000
E00000
ENDCHAR
STARTCHAR 003F
ENCODING 63
SWIDTH 520 0
DWIDTH 26 0
BBX 24 34 1 0
BITMAP
00FE00
07FFC0
1FFFF0
3F01F8
78007C
F0001E
E0000E
E0000F
E00007
F00007
780007
7C0007
3E000F
0C000E
00001E
00003C
0000F8
000FF0
001FC0
001F00
001C00
001C00
001C00
001C00
001C00
001C00
000800
001C00
001C00
001C00
001C00
001C00
001C00
001C00
ENDCHAR
STARTCHAR 0040
ENCODING 64
SWIDTH 700 0
DWIDTH 35 0
BBX 34 34 1 0
BITMAP
0007F80000
003FFF0000
007FFFC000
01FC07E000
03E000F800
0780007800
0F00003C00
1E01FE1E00
3C07FF8E00
381FFF8700
783F018700
707C038700
70F0038380
E1E0038380
E1C0030380
E3C0030380
E380030380
E380070380
E380070380
E380070700
E380070700
73C0060F00
71E01E1E00
79F07E3E00
38FFFFFD80
3C3FF7FBC0
1E0FC3E7C0
0F00000F80
0F80003F00
07E000FC00
01F807F800
00FFFFE000
003FFF8000
0007FC0000
ENDCHAR
STARTCHAR 0041
ENCODING 65
SWIDTH 860 0
DWIDTH 43 0
BBX 41 34 1 0
BITMAP
00007FC00000
0007FFF80000
001FFFFE0000
007F803F0000
00FC000F0000
03F000078000
07C000038000
0F8000038000
1E0000038000
1E0000038000
3C0000038000
380000038000
700000038000
700000038000
F00000038000
E00000038000
E00000038000
E00000038000
E00000038000
E00000038000
E00000038000
E00000038000
F00000038000
700000038000
780000078000
3800000F8000
3C00001F8000
1E00003F8000
0F0000FB8000
07C001F3C000
03F80FE1E380
01FFFF81FF80
007FFE00FF00
000FF0003E00
ENDCHAR
STARTCHAR 0042
ENCODING 66
SWIDTH 640 0
DWIDTH 32 0
BBX 30 36 1 -1
BITMAP
007E0000
03FFC000
0FFFE000
1F81E000
3F807000
3B807000
13807000
0380F000
0381E000
0387C000
039FC000
03BFF800
03BFFE00
03807F00
03800FC0
038003E0
038001F0
038000F0
03800078
03800038
0380003C
0380001C
0380001C
0380001C
0380001C
0380001C
03800038
43800038
E3800078
F38000F0
7B8001E0
3F8007C0
1FC03F80
0FFFFE00
03FFF800
007FC000
ENDCHAR
STARTCHAR 0043
ENCODING 67
SWIDTH 740 0
DWIDTH 37 0
BBX 35 35 1 0
BITMAP
0003FE0000
001FFFC000
007FFFF000
01FE01FC00
03F0003E00
07C0001F00
0F00000780
1E00000380
1C000001C0
3C000001C0
78000000E0
70000000E0
70000000E0
F0000000E0
E0000000E0
E0000000E0
E0000001C0
E0000003C0
E000000780
E000000F00
E000001F00
E000003C00
7000001800
7000000000
7800000000
3800000000
3C00000000
1E00000000
0F00000000
0780000000
03E0000000
01FC000000
007F800000
001FC00000
0003800000
ENDCHAR
STARTCHAR 0044
ENCODING 68
SWIDTH 820 0
DWIDTH 41 0
BBX 39 34 1 0
BITMAP
007FFC0000
07FFFFE000
3FFFFFF800
3FC003FE00
3F80003F80
03800007C0
03800003E0
03800000F0
0380000078
0380000038
038000003C
038000001C
038000001E
038000000E
038000000E
038000000E
038000000E
038000000E
038000000E
038000000E
038000001E
038000001C
038000003C
0380000038
0380000078
03800000F0
03800001E0
03800007C0
0380001F80
FB8000FF00
FF800FFC00
3FFFFFF000
0FFFFF8000
00FFF00000
ENDCHAR
STARTCHAR 0045
ENCODING 69
SWIDTH 460 0
DWIDTH 23 0
BBX 21 34 1 0
BITMAP
FFFE00
FFFE00
FFFF00
380700
380700
380700
380000
380000
380000
380000
380000
380000
380000
380000
380000
380000
380000
380000
380000
380000
380000
380000
380000
380000
3FF800
3FF800
3FF830
380078
380070
3800F0
3800E0
FFFFE0
FFFFC0
FFFFC0
ENDCHAR
STARTCHAR 0046
ENCODING 70
SWIDTH 380 0
DWIDTH 19 0
BBX 16 34 1 0
BITMAP
FFFE
FFFE
FFFF
3807
3807
3803
3800
3800
3800
3800
3800
3800
3800
3800
3800
3800
3800
3800
3800
3800
3800
3800
3800
3800
3FE0
3FF0
3FE0
3800
3800
3800
3800
FF00
FF00
FF00
ENDCHAR
STARTCHAR 0047
ENCODING 71
SWIDTH 780 0
DWIDTH 39 0
BBX 37 34 1 0
BITMAP
0001FF8000
000FFFF000
003FFFFC00
00FF00FF00
03F8000F80
07C00003E0
0F800001F0
1F000000F0
1E00000078
3C00000038
7800000078
7000000078
70000000F0
F0000000E0
E0000001E0
E0000001C0
E0000001C0
E000000000
E000000000
E000000000
E000000000
7000000000
7000000FF8
7800000FF8
3C00000FF8
1C000001C0
1E000001C0
0F800001C0
07C00003C0
03F0000FC0
00FF007F00
003FFFFE00
000FFFF000
0001FF8000
ENDCHAR
STARTCHAR 0048
ENCODING 72
SWIDTH 460 0
DWIDTH 23 0
BBX 21 34 1 0
BITMAP
FE03F8
FE03F8
FE03F8
3800E0
3800E0
3800E0
3800E0
3800E0
3800E0
3800E0
3800E0
3800E0
3800E0
3800E0
3800E0
3800E0
3800E0
3800E0
3800E0
3800E0
3800E0
3FFFE0
3FFFE0
3FFFE0
3800E0
3800E0
3800E0
3800E0
3800E0
3800E0
3800E0
FE03F8
FE03F8
FE03F8
ENDCHAR
STARTCHAR 0049
ENCODING 73
SWIDTH 180 0
DWIDTH 9 0
BBX 7 34 1 0
BITMAP
FE
FE
FE
38
38
38
38
38
38
38
38
38
38
38
38
38
38
38
38
38
38
38
38
38
38
38
38
38
38
38
38
FE
FE
FE
ENDCHAR
STARTCHAR 004A
ENCODING 74
SWIDTH 480 0
DWIDTH 24 0
BBX 21 34 1 0
BITMAP
0003F8
0003F8
0003F8
0000E0
0000E0
0000E0
0000E0
0000E0
0000E0
0000E0
0000E0
0000E0
0000E0
0000E0
0000E0
0000E0
0000E0
0000E0
0000E0
07E0E0
1FF0E0
3FF8E0
7C3CE0
F01CE0
E01CE0
E01CE0
E73CE0
E7F8E0
F7F9E0
79E3C0
7C0F80
3FFF00
0FFE00
03F000
ENDCHAR
STARTCHAR 004B
ENCODING 75
SWIDTH 500 0
DWIDTH 25 0
BBX 23 34 1 0
BITMAP
FE03FE
FE03FE
FE03FE
3801E0
3801E0
3803C0
380380
380780
380F00
380F00
381E00
383C00
383C00
387800
38F800
38F000
39F800
39FC00
3BBC00
3F9E00
3F1E00
3F1E00
3E1E00
3C0E00
3C0E00
380E00
380E00
380E00
380F00
380F00
380784
FE07FE
FE03FE
FE00F8
ENDCHAR
STARTCHAR 004C
ENCODING 76
SWIDTH 360 0
DWIDTH 18 0
BBX 15 34 1 0
BITMAP
FE00
FF00
FE00
3800
3800
3800
3800
3800
3800
3800
3800
3800
3800
3800
3800
3800
3800
3800
3800
3800
3800
3800
3800
3800
3800
3800
3806
380E
380E
381C
383C
FFFC
FFF8
FFF0
ENDCHAR
STARTCHAR 004D
ENCODING 77
SWIDTH 660 0
DWIDTH 33 0
BBX 31 35 1 1
BITMAP
E000000E
F000001E
7800003C
3C000078
3E0000F8
1E0001F0
1F0001F0
1F8003F0
1FC007F0
1DE00F70
1CF01E70
1C783C70
1C3C7870
1C1EF070
1C1FE070
1C0FE070
1C07C070
1C038070
1C000070
1C000070
1C000070
1C000070
1C000070
1C000070
1C000070
1C000070
1C000070
1C000070
1C000070
1C000070
1C000070
1C000070
7F0001FC
7F0001FC
7F0001FC
ENDCHAR
STARTCHAR 004E
ENCODING 78
SWIDTH 460 0
DWIDTH 23 0
BBX 21 35 1 1
BITMAP
E00000
F803F8
7E03F8
1F83F8
1FE0E0
1FF0E0
1CFCE0
1C3FE0
1C0FE0
1C07E0
1C01E0
1C00E0
1C00E0
1C00E0
1C00E0
1C00E0
1C00E0
1C00E0
1C00E0
1C00E0
1C00E0
1C00E0
1C00E0
1C00E0
1C00E0
1C00E0
1C00E0
1C00E0
1C00E0
1C00E0
1C00E0
1C00E0
7F00E0
7F00E0
7F00E0
ENDCHAR
STARTCHAR 004F
ENCODING 79
SWIDTH 760 0
DWIDTH 38 0
BBX 36 36 1 -1
BITMAP
0003FC0000
001FFF8000
007FFFE000
01FC03F800
03F000FC00
07C0003E00
0F00000F00
1E00000780
1C00000780
3C000003C0
38000001C0
78000001E0
70000000E0
70000000E0
E000000070
E000000070
E000000070
E000000070
E000000070
E000000070
E000000070
E000000070
70000000E0
70000000E0
70000001E0
38000001C0
3C000003C0
1C00000380
1E00000780
0F00000F00
07C0003E00
03E000FC00
01FC03F800
007FFFE000
001FFF8000
0003FC0000
ENDCHAR
STARTCHAR 0050
ENCODING 80
SWIDTH 480 0
DWIDTH 24 0
BBX 21 34 2 0
BITMAP
07F800
3FFF00
FFFFC0
F807E0
F800F0
380078
380038
380038
380038
380078
3800F0
3807E0
3FFFC0
3FFF00
3FF800
380000
380000
380000
380000
380000
380000
380000
380000
380000
380000
380000
380000
380000
380000
380000
380000
FE0000
FE0000
FE0000
ENDCHAR
STARTCHAR 0051
ENCODING 81
SWIDTH 760 0
DWIDTH 38 0
BBX 36 41 1 -6
BITMAP
0003FC0000
001FFF8000
007FFFE000
01FC03F000
03F000FC00
07C0003E00
0F00000F00
1E00000780
1C00000380
3C000003C0
38000001C0
70000001E0
70000000E0
70000000E0
E000000070
E000000070
E000000070
E000000070
E000000070
E000000070
E000000070
E000600070
70007000E0
70007000E0
70007001E0
38007001C0
3C007003C0
1C00380380
1E00380780
0F00380F00
07C03C3E00
03E01C7C00
01FC1FF800
007FFFE000
001FFF8000
0003FF8000
000003C000
000003E000
000001FE00
0000007E00
0000001E00
ENDCHAR
STARTCHAR 0052
ENCODING 82
SWIDTH 560 0
DWIDTH 28 0
BBX 26 34 1 0
BITMAP
07FE0000
3FFFC000
FFFFF000
FC01F800
5C003C00
1C001C00
1C001C00
1C003C00
1C01F800
1CFFF000
1CFFE000
1CFF0000
1CE00000
1CE00000
1CE00000
1C700000
1C700000
1C700000
1C380000
1C380000
1C380000
1C1C0000
1C1C0000
1C1E0000
1C0E0000
1C0F0000
1C078000
1C03C000
1C01E000
1C01F000
1C00FC00
7F003F80
7F001FC0
7F000780
ENDCHAR
STARTCHAR 0053
ENCODING 83
SWIDTH 660 0
DWIDTH 33 0
BBX 31 34 1 0
BITMAP
000FF000
00FFFE00
03FFFFC0
0FF00FE0
1F8001F0
3E000078
7800003C
7000001C
F000001E
E000000E
E000000E
E000000E
E000000E
E000000E
7000000C
78000000
3C000000
3E000000
1F000000
07800000
03C00000
01E00000
00F00000
00700000
00780000
00380000
00380000
00380000
00380000
E0700000
F0F00000
7FE00000
3FC00000
1F000000
ENDCHAR
STARTCHAR 0054
ENCODING 84
SWIDTH 520 0
DWIDTH 26 0
BBX 23 34 1 0
BITMAP
7FFFFC
7FFFFC
FFFFFE
E0380E
E0380E
C03806
003800
003800
003800
003800
003800
003800
003800
003800
003800
003800
003800
003800
003800
003800
003800
003800
003800
003800
003800
003800
003800
003800
003800
003800
003800
00FE00
00FE00
00FE00
ENDCHAR
STARTCHAR 0055
ENCODING 85
SWIDTH 500 0
DWIDTH 25 0
BBX 23 35 1 -1
BITMAP
FE00FE
FE00FE
FE00FE
380038
380038
380038
380038
380038
380038
380038
380038
380038
380038
380038
380038
380038
380038
380038
380038
380038
380038
380038
380038
380038
380038
380038
380038
380038
1C0070
1C0070
1E00F0
0F83E0
07FFC0
03FF80
00FC00
ENDCHAR
STARTCHAR 0056
ENCODING 86
SWIDTH 500 0
DWIDTH 25 0
BBX 23 34 1 0
BITMAP
FF01FE
FF01FE
FF01FE
1C0070
1C0070
1E00F0
1E00F0
0E00E0
0E00E0
0F01E0
0F01E0
0701C0
0701C0
0783C0
0783C0
038380
038380
038380
03C780
01C700
01C700
01C700
00EF00
00EE00
00EE00
00EE00
007C00
007C00
007C00
007C00
003800
003800
003800
003800
ENDCHAR
STARTCHAR 0057
ENCODING 87
SWIDTH 660 0
DWIDTH 33 0
BBX 31 34 1 0
BITMAP
FF0001FE
FF0001FE
FF0001FE
1C000070
1C000070
1C000070
1C000070
0E0000E0
0E0000E0
0E0000E0
0E0000E0
0E0000E0
0E0000E0
060001C0
070001C0
070001C0
070001C0
070001C0
070001C0
03038180
03838380
0387C380
0387C380
038EE380
019EF300
019C7300
01BC7B00
01F83F00
01F83F00
01F01F00
00F01E00
00F00E00
00E00E00
00C00600
ENDCHAR
STARTCHAR 0058
ENCODING 88
SWIDTH 600 0
DWIDTH 30 0
BBX 28 34 1 0
BITMAP
0FF07F00
0FF07F00
0FF07F00
01E03800
00E07800
00F07000
0070F000
0078E000
0039E000
001DC000
001FC000
000F8000
000F0000
00070000
000F0000
000F8000
001F8000
001DC000
0039C000
0038E000
0070F000
00F07000
00E07800
01E03800
01C03C00
03C01C00
03801E00
07800E00
07000F00
0F000700
0E000780
7F000FF0
FF000FF0
7F000FF0
ENDCHAR
STARTCHAR 0059
ENCODING 89
SWIDTH 520 0
DWIDTH 26 0
BBX 24 34 1 0
BITMAP
FF00FF
FF00FF
FF00FF
1E0078
0E00F0
0F00E0
0701E0
0781C0
0383C0
03C780
01C700
01EF00
00EE00
007E00
007C00
003800
003800
003800
003800
003800
003800
003800
003800
003800
003800
003800
003800
003800
003800
003800
003800
00FF00
00FF00
00FF00
ENDCHAR
STARTCHAR 005A
ENCODING 90
SWIDTH 420 0
DWIDTH 21 0
BBX 19 34 1 0
BITMAP
0FFFC0
0FFFE0
1FFFC0
1C01C0
1C0380
180780
000700
000F00
000E00
001E00
001C00
003C00
003800
007800
007000
00F000
00E000
01E000
01C000
03C000
038000
078000
070000
0F0000
0E0000
1E0000
1C0060
3C00E0
3800E0
7801E0
7001C0
FFFFC0
FFFF80
FFFF00
ENDCHAR
STARTCHAR 005B
ENCODING 91
SWIDTH 180 0
DWIDTH 9 0
BBX 7 45 1 -11
BITMAP
FE
FE
FE
E0
E0
E0
E0
E0
E0
E0
E0
E0
E0
E0
E0
E0
E0
E0
E0
E0
E0
E0
E0
E0
E0
E0
E0
E0
E0
E0
E0
E0
E0
E0
E0
E0
E0
E0
E0
E0
E0
E0
FE
FE
FE
ENDCHAR
STARTCHAR 005C
ENCODING 92
SWIDTH 300 0
DWIDTH 15 0
BBX 14 44 0 -10
BITMAP
6000
E000
7000
7000
7000
7800
3800
3800
3800
3C00
1C00
1C00
1C00
0E00
0E00
0E00
0E00
0700
0700
0700
0780
0380
0380
0380
03C0
01C0
01C0
01C0
00E0
00E0
00E0
00E0
0070
0070
0070
0070
0038
0038
0038
003C
001C
001C
001C
000C
ENDCHAR
STARTCHAR 005D
ENCODING 93
SWIDTH 180 0
DWIDTH 9 0
BBX 7 45 1 -11
BITMAP
FE
FE
FE
0E
0E
0E
0E
0E
0E
0E
0E
0E
0E
0E
0E
0E
0E
0E
0E
0E
0E
0E
0E
0E
0E
0E
0E
0E
0E
0E
0E
0E
0E
0E
0E
0E
0E
0E
0E
0E
0E
0E
FE
FE
FE
ENDCHAR
STARTCHAR 005E
ENCODING 94
SWIDTH 420 0
DWIDTH 21 0
BBX 19 18 1 14
BITMAP
00C000
00E000
01F000
01F000
03F800
03B800
073C00
0F1C00
0E1E00
1E0E00
1C0700
3C0700
380380
7803C0
7001C0
F001E0
E000E0
E000E0
ENDCHAR
STARTCHAR 005F
ENCODING 95
SWIDTH 500 0
DWIDTH 25 0
BBX 25 3 0 -4
BITMAP
FFFFFF80
FFFFFF80
FFFFFF80
ENDCHAR
STARTCHAR 0060
ENCODING 96
SWIDTH 360 0
DWIDTH 18 0
BBX 16 11 1 24
BITMAP
C000
E000
F800
7E00
3F80
0FE0
03F8
00FE
003F
000F
0002
ENDCHAR
STARTCHAR 0061
ENCODING 97
SWIDTH 400 0
DWIDTH 20 0
BBX 18 24 1 0
BITMAP
003E00
007F00
00FF80
00E3C0
00C1C0
0001C0
0001C0
0001C0
0001C0
0001C0
0001C0
03FFC0
1FFFC0
3FFFC0
7C01C0
F001C0
E001C0
E001C0
E001C0
F003C0
7C0FC0
3FFFC0
1FFFC0
03F9C0
ENDCHAR
STARTCHAR 0062
ENCODING 98
SWIDTH 680 0
DWIDTH 34 0
BBX 32 34 1 0
BITMAP
1E000000
7F000000
FF800000
E3C00000
C1C00000
01C00000
01C00000
01C00000
01C00000
01C00000
01C0FE00
01C7FF80
01CFFFE0
01FF03F0
01FC0078
01F0003C
01E0001E
01E0000E
01C0000F
01C00007
01C00007
01C00007
01C00007
01C00007
01C0000F
01C0000E
01C0001E
01C0001C
01C0003C
01C000F8
01F007F0
01FFFFE0
01FFFF80
01CFF800
ENDCHAR
STARTCHAR 0063
ENCODING 99
SWIDTH 560 0
DWIDTH 28 0
BBX 26 24 1 0
BITMAP
003FC000
01FFF800
07FFFC00
0FE07F00
1F000F80
3C0007C0
780001C0
700003C0
70000780
E0000700
E0000300
E0000000
E0000000
E0000000
E0000000
70000000
70000000
78000000
3C000000
1F000000
0FE00000
07FF8000
01FFC000
003F8000
ENDCHAR
STARTCHAR 0064
ENCODING 100
SWIDTH 680 0
DWIDTH 34 0
BBX 32 34 1 0
BITMAP
00001F80
00003F80
00001F80
00000380
00000380
00000380
00000380
00000380
00000380
00000380
003F8380
01FFF380
07FFFF80
0FC07F80
1F001F80
3C000780
38000380
70000380
70000380
E0000380
E0000380
E0000380
E0000380
E0000380
E0000380
F0000380
70000780
78000F80
3C001F80
1E003F83
0FC0FFC7
07FFF1FF
03FFE0FE
007F007C
ENDCHAR
STARTCHAR 0065
ENCODING 101
SWIDTH 600 0
DWIDTH 30 0
BBX 28 24 1 0
BITMAP
003FC000
01FFF800
03FFFE00
0FE03F00
1F000FC0
3C0003C0
380001E0
780000E0
70000070
E0000070
E0000070
E0000070
E0000070
E00000F0
FFFFFFE0
7FFFFFE0
7FFFFFC0
38000000
3C000000
1F000000
0FC00000
03FF8000
01FFC000
003F8000
ENDCHAR
STARTCHAR 0066
ENCODING 102
SWIDTH 500 0
DWIDTH 25 0
BBX 23 34 1 0
BITMAP
001F80
007FE0
01FFF0
03E078
07803C
07001C
0F000E
0E000E
0E000E
0E000E
FFE000
FFF000
FFE000
0E0000
0E0000
0E0000
0E0000
0E0000
0E0000
0E0000
0E0000
0E0000
0E0000
0E0000
0E0000
0E0000
0E0000
0E0000
0E0000
0E0000
0E0000
3F8000
3F8000
3F8000
ENDCHAR
STARTCHAR 0067
ENCODING 103
SWIDTH 780 0
DWIDTH 39 0
BBX 37 36 1 -7
BITMAP
0000001F80
000000FFE0
000001FFF0
000003E0F0
0000078038
0001FF0038
000FFF0038
003FFF8078
00FF03C0F0
01F800E1F0
03E000E1C0
078000E000
0F0000E000
1E0001E000
3C0001C000
780003C000
7000078000
F0000F8000
E0001F0000
E0003E0000
E000FC0000
E003F80000
F81FE00000
7FFFC1F000
3FFF0FF800
0FF83FFC00
0018FE1C00
001FF03C00
000FC07800
0007C0F000
000781E000
000E07C000
000E3F8000
000FFE0000
0007F80000
0003E00000
ENDCHAR
STARTCHAR 0068
ENCODING 104
SWIDTH 540 0
DWIDTH 27 0
BBX 25 34 1 0
BITMAP
3E000000
7F000000
FF800000
E3C00000
C1C00000
01C00000
01C00000
01C00000
01C00000
01C00000
01C78000
01DFE000
01FFE000
01FCF000
01F07000
01F03800
01E03800
01E03800
01E03800
01C03800
01C03800
01C03800
01C03800
01C01C00
01C01C00
01C01C00
01C01C00
01C01C00
01C01C00
01C01C00
01C01C00
07F01F00
07F01F80
07F00F00
ENDCHAR
STARTCHAR 0069
ENCODING 105
SWIDTH 200 0
DWIDTH 10 0
BBX 9 35 0 1
BITMAP
0380
0380
0380
0700
0700
0F00
0E00
1E00
1C00
1C00
0000
7C00
FC00
7C00
1C00
1C00
1C00
1C00
1C00
1C00
1C00
1C00
1C00
1C00
1C00
1C00
1C00
1C00
1C00
1C00
1C00
1C00
7F00
7F00
7F00
ENDCHAR
STARTCHAR 006A
ENCODING 106
SWIDTH 280 0
DWIDTH 14 0
BBX 12 49 1 -13
BITMAP
0060
00F0
00E0
00E0
01C0
01C0
03C0
0380
0780
0700
0000
0F80
0F80
0F80
0380
0380
0380
0380
0380
0380
0380
0380
0380
0380
0380
0380
0380
0380
0380
0380
0380
0380
0380
0380
0380
0380
0380
0380
0380
0780
0700
0700
0F00
1E00
3C00
7C00
F800
F000
E000
ENDCHAR
STARTCHAR 006B
ENCODING 107
SWIDTH 600 0
DWIDTH 30 0
BBX 28 34 1 0
BITMAP
3E000000
7F000000
FF800000
E3C00000
C1C00000
01C00000
01C00000
01C00000
01C00000
01C00000
01FFFC00
01FFFE00
01FFFE00
01C01C00
01C01C00
01C01C00
01C03C00
01C07800
01C0F000
01C1F000
01CFE000
01CF8000
01CF0000
01CE0000
01CF0000
01C70000
01C78000
01C3C000
01C1E000
01C1F000
01C07E00
07F03FE0
07F00FF0
07F003E0
ENDCHAR
STARTCHAR 006C
ENCODING 108
SWIDTH 280 0
DWIDTH 14 0
BBX 12 34 1 0
BITMAP
3E00
7F00
FF80
E3C0
C1C0
01C0
01C0
01C0
01C0
01C0
01C0
01C0
01C0
01C0
01C0
01C0
01C0
01C0
01C0
01C0
01C0
01C0
01C0
01C0
01C0
01C0
01C0
01C0
01C0
01C0
01C0
07F0
07F0
07F0
ENDCHAR
STARTCHAR 006D
ENCODING 109
SWIDTH 620 0
DWIDTH 31 0
BBX 29 24 1 0
BITMAP
7C303000
FC787800
7CF8F800
1DF9FC00
1FFBFC00
1FBF9C00
1F1F1C00
1E1E0E00
1C1C0E00
1C1C0E00
1C1C0700
1C0E0700
1C0E0700
1C0E0780
1C0E0380
1C0E0380
1C070380
1C0701C0
1C0701C0
1C0701C0
1C0701E0
3E03E0F8
7F03E0F8
3E03E078
ENDCHAR
STARTCHAR 006E
ENCODING 110
SWIDTH 400 0
DWIDTH 20 0
BBX 19 24 1 0
BITMAP
7C3000
FC7800
7CF800
1DF800
1FF800
1FBC00
1F1C00
1E1C00
1C1C00
1C1C00
1C1E00
1C0E00
1C0E00
1C0E00
1C0E00
1C0F00
1C0700
1C0700
1C0700
1C0700
1C0780
7E03E0
7F03E0
3E03E0
ENDCHAR
STARTCHAR 006F
ENCODING 111
SWIDTH 560 0
DWIDTH 28 0
BBX 26 25 1 -1
BITMAP
007F0000
01FFE000
07FFF800
0FC0FC00
1F003E00
3C000F00
38000700
78000780
70000380
F00003C0
E00001C0
E00001C0
E00001C0
E00001C0
E00001C0
E00003C0
70000380
70000780
38000700
3C000F00
1F003E00
0FC0FC00
07FFF800
01FFE000
007F8000
ENDCHAR
STARTCHAR 0070
ENCODING 112
SWIDTH 620 0
DWIDTH 31 0
BBX 29 38 1 -15
BITMAP
1E03F800
7F1FFE00
FFFFFF80
E3FC0FC0
E1F003E0
01C001E0
01C000F0
01C00070
01C00078
01C00038
01C00038
01C00038
01C00038
01C00038
01C00078
01C00070
01C000F0
01C001E0
01C003C0
01C01F80
01FFFF00
01FFFC00
01FFE000
01C00000
01C00000
01C00000
01C00000
01C00000
01C00000
01C00000
01C00000
01C00000
03800000
03800000
07000000
0E000000
1C000000
08000000
ENDCHAR
STARTCHAR 0071
ENCODING 113
SWIDTH 540 0
DWIDTH 27 0
BBX 25 37 1 -15
BITMAP
00FE0600
03FF9E00
0FFFFE00
1F83FC00
3E00F800
3C003800
78003800
70003800
F0003800
E0003800
E0003800
E0003800
E0003800
E0003800
F0003800
70003800
78003800
3C003800
3E00F800
1F83F800
0FFFF800
03FFB800
00FE3800
00003800
00003800
00003800
00003800
00003800
00003800
00003800
00003800
00003C00
00001C00
00001E00
00000F00
00000780
00000380
ENDCHAR
STARTCHAR 0072
ENCODING 114
SWIDTH 460 0
DWIDTH 23 0
BBX 21 24 1 0
BITMAP
7C0FC0
FC3FE0
7C7FF0
1CF878
1DE038
1FC038
1F8038
1F0078
1F0070
1E0060
1E0000
1E0000
1C0000
1C0000
1C0000
1C0000
1C0000
1C0000
1C0000
1C0000
1C0000
7F8000
7F8000
7F0000
ENDCHAR
STARTCHAR 0073
ENCODING 115
SWIDTH 480 0
DWIDTH 24 0
BBX 22 24 1 0
BITMAP
00FF00
07FFE0
1FFFF0
3F00F8
7C003C
70001C
F0001C
E00000
E00000
E00000
F00000
780000
3E0000
1F8000
07C000
03C000
01E000
00E000
00E000
00E000
E1E000
FFC000
FF8000
3E0000
ENDCHAR
STARTCHAR 0074
ENCODING 116
SWIDTH 300 0
DWIDTH 15 0
BBX 13 31 1 0
BITMAP
7C00
7C00
7C00
1C00
1C00
1C00
1C00
FFC0
FFC0
FFC0
1C00
1C00
1C00
1C00
1C00
1C00
1C00
1C00
1C00
1C00
1C00
1C00
1C00
1C00
1C00
1C00
1C00
1E38
0FF8
07F0
03E0
ENDCHAR
STARTCHAR 0075
ENCODING 117
SWIDTH 580 0
DWIDTH 29 0
BBX 27 24 1 0
BITMAP
7801F800
FC01F800
7C01F800
1C003800
1C003800
0E003800
0E003800
0E003800
0E003800
0E003800
07003800
07003800
07003800
07003800
03803800
03803800
03803800
03803800
03C07800
01C07800
01F0FCC0
00FFFFE0
007FDFC0
001F0780
ENDCHAR
STARTCHAR 0076
ENCODING 118
SWIDTH 480 0
DWIDTH 24 0
BBX 22 25 1 -2
BITMAP
FE01FC
FE01FC
FE01FC
1C00E0
1C00E0
1C00E0
0E01C0
0E01C0
070380
070380
070380
038700
038700
038700
01CE00
01CE00
01CE00
00FC00
00FC00
00FC00
007800
007800
007800
007000
007000
ENDCHAR
STARTCHAR 0077
ENCODING 119
SWIDTH 600 0
DWIDTH 30 0
BBX 28 24 1 0
BITMAP
FE0007F0
FE0007F0
FE0007F0
1C000380
1C070380
1C070380
0C070300
0E070700
0E070700
0E070700
07070E00
07070E00
07070E00
03871C00
03871C00
03801C00
01863800
01CF3800
01DFB800
01FFF800
00F9F000
00F9F000
00F0F000
00606000
ENDCHAR
STARTCHAR 0078
ENCODING 120
SWIDTH 600 0
DWIDTH 30 0
BBX 28 24 1 0
BITMAP
7C03E000
FE03E000
FF03E000
4701E000
0381C000
01C3C000
01C38000
00E70000
00FF0000
007E0000
00FE0000
00FC0000
01FC0000
01DE0000
038E0000
038F0000
07070000
07078000
0E03C000
0E01C060
1C01F0F0
FF00FFF0
FF007FE0
FF001F80
ENDCHAR
STARTCHAR 0079
ENCODING 121
SWIDTH 540 0
DWIDTH 27 0
BBX 25 36 1 -13
BITMAP
FE003F80
FE003F80
FE003F80
1C003C00
1E003800
0F007000
07007000
0780E000
0381C000
03C1C000
01C38000
00E38000
00E70000
007FE000
007FF800
003FFC00
003C1E00
00780F00
00700700
00000700
00000380
00000380
001FC380
007FE380
01FFE380
03F00380
07800700
07000700
0F000F00
0E001E00
0E003C00
0E00F800
0F03F000
07FFE000
03FF8000
00FC0000
ENDCHAR
STARTCHAR 007A
ENCODING 122
SWIDTH 340 0
DWIDTH 17 0
BBX 15 24 1 0
BITMAP
7FFC
FFFC
FFFC
E038
4078
0070
00F0
00E0
01E0
01C0
03C0
0780
0700
0F00
0E00
1E00
1C00
3C04
380E
780E
700E
FFFE
FFFE
FFFE
ENDCHAR
STARTCHAR 007B
ENCODING 123
SWIDTH 200 0
DWIDTH 10 0
BBX 8 45 1 -11
BITMAP
7E
FF
7E
70
70
70
70
70
70
38
38
38
38
38
38
1C
1C
1C
1C
1C
7C
FC
F0
FC
3C
1C
1C
1C
1C
3C
38
38
38
38
38
38
78
70
70
70
70
70
FE
FF
7E
ENDCHAR
STARTCHAR 007C
ENCODING 124
SWIDTH 100 0
DWIDTH 5 0
BBX 3 49 1 -14
BITMAP
E0
E0
E0
E0
E0
E0
E0
E0
E0
E0
E0
E0
E0
E0
E0
E0
E0
E0
E0
E0
E0
E0
E0
E0
E0
E0
E0
E0
E0
E0
E0
E0
E0
E0
E0
E0
E0
E0
E0
E0
E0
E0
E0
E0
E0
E0
E0
E0
E0
ENDCHAR
STARTCHAR 007D
ENCODING 125
SWIDTH 200 0
DWIDTH 10 0
BBX 8 45 0 -11
BITMAP
7E
FF
7E
0E
0E
0E
0E
0E
0E
1C
1C
1C
1C
1C
1C
3C
38
38
38
38
3E
3F
0F
3F
3C
38
38
38
38
1C
1C
1C
1C
1C
1C
1C
0E
0E
0E
0E
0E
0E
7F
FF
7E
ENDCHAR
STARTCHAR 007E
ENCODING 126
SWIDTH 580 0
DWIDTH 29 0
BBX 27 6 1 14
BITMAP
0FE00040
3FFC00E0
7FFF83E0
F83FFFC0
E007FF80
4000FE00
ENDCHAR
STARTCHAR 00A0
ENCODING 160
SWIDTH 200 0
DWIDTH 10 0
BBX 0 0 0 0
BITMAP
ENDCHAR
STARTCHAR 00A1
ENCODING 161
SWIDTH 100 0
DWIDTH 5 0
BBX 4 34 0 -8
BITMAP
70
70
70
70
70
70
70
20
70
70
70
70
70
70
70
70
70
70
70
70
70
70
70
70
70
70
70
70
70
70
70
F0
E0
C0
ENDCHAR
STARTCHAR 00A2
ENCODING 162
SWIDTH 560 0
DWIDTH 28 0
BBX 26 35 1 0
BITMAP
00000E00
00001E00
00001C00
00003C00
003FF800
01FFF800
07FFFC00
0FE0FF00
1F01EF80
3C03C7C0
780383C0
700783C0
70070780
E00E0700
E01E0300
E01C0000
E03C0000
E0780000
E0700000
70F00000
78E00000
79E00000
3FC00000
1F800000
0FC00000
07FF8000
0FFFC000
1E3F8000
1C000000
3C000000
78000000
70000000
F0000000
E0000000
E0000000
ENDCHAR
STARTCHAR 00A3
ENCODING 163
SWIDTH 580 0
DWIDTH 29 0
BBX 27 35 1 -1
BITMAP
001FE000
007FF800
01FFFE00
03F03F00
03C00F00
07800780
07000380
07000100
07000000
07000000
07000000
07000000
03800000
03800000
03800000
01C00000
01C00000
3FFFE000
7FFFF000
3FFFE000
00F00000
00E00000
00700000
00700000
00700000
00700000
00700000
00700000
7EF000E0
FFE000E0
FFE000E0
E7F803C0
FFFFFFC0
7F7FFF00
3C0FFC00
ENDCHAR
STARTCHAR 00A4
ENCODING 164
SWIDTH 820 0
DWIDTH 41 0
BBX 39 35 1 -1
BITMAP
00003FE00C
0003FFFC0E
000FFFFF1E
001FC03FFC
007E0007F8
00F80001F8
01F00000F0
01E00000E0
03C00001E0
07800001C0
07000003C0
0700000380
0E00000100
0E00000000
FFFFFFF800
FFFFFFFC00
FFFFFFF800
FFFFFFE000
FFFFFFF000
FFFFFFE000
0E00000000
0E00000000
0E00000000
0700000000
0700000000
0780000000
03C0000000
01E0000000
01F0000000
00F8000000
007E000000
001FC00000
000FF80000
0003F80000
0000F80000
ENDCHAR
STARTCHAR 00A5
ENCODING 165
SWIDTH 520 0
DWIDTH 26 0
BBX 24 34 1 0
BITMAP
FF00FF
FF00FF
FF00FF
1E0078
0E00F0
0F00F0
0701E0
0381C0
0383C0
01C780
01C780
00EF00
00EF00
007E00
7FFFFE
7FFFFE
7FFFFE
7FFFFC
FFFFFE
7FFFFC
003800
003800
003800
003800
003800
003800
003800
003800
003800
003800
003800
00FF00
00FF00
00FF00
ENDCHAR
STARTCHAR 00A6
ENCODING 166
SWIDTH 100 0
DWIDTH 5 0
BBX 3 49 1 -14
BITMAP
E0
E0
E0
E0
E0
E0
E0
E0
E0
E0
E0
E0
E0
E0
E0
E0
E0
E0
E0
E0
E0
E0
E0
00
E0
E0
E0
E0
E0
E0
E0
E0
E0
E0
E0
E0
E0
E0
E0
E0
E0
E0
E0
E0
E0
E0
E0
E0
E0
ENDCHAR
STARTCHAR 00A7
ENCODING 167
SWIDTH 360 0
DWIDTH 18 0
BBX 16 43 1 -9
BITMAP
01F0
07FC
0FFE
1E0F
3C07
3800
3800
3800
3800
3800
3800
3C00
3E00
7F00
7F80
E7C0
E3F0
E0F8
E07C
E03C
F01E
F00E
780F
3C07
3E07
1F07
0F87
03E7
01FE
00FE
007C
003C
001C
001C
001C
001C
001C
001C
E03C
F078
7FF0
3FE0
0F80
ENDCHAR
STARTCHAR 00A8
ENCODING 168
SWIDTH 200 0
DWIDTH 10 0
BBX 8 4 1 25
BITMAP
66
FF
FF
66
ENDCHAR
STARTCHAR 00A9
ENCODING 169
SWIDTH 720 0
DWIDTH 36 0
BBX 34 34 1 0
BITMAP
0007F80000
003FFF0000
00FFFFC000
01F807E000
07E001F000
0F83F87800
0F1FFF3C00
1E3FFFDE00
3C7C07EF00
38F001F700
79E000F780
73C0007B80
7380003B80
E3800039C0
E7000039C0
E7000039C0
E7000079C0
E70000F1C0
E70001E1C0
E70003C1C0
E7800181C0
7380000380
73C0000380
79E0000780
38F0000700
3C7E000F00
1E3F801E00
0F1FC03C00
0F83807C00
07E001F800
01F807E000
00FFFFC000
003FFF0000
0007F80000
ENDCHAR
STARTCHAR 00AA
ENCODING 170
SWIDTH 240 0
DWIDTH 12 0
BBX 10 13 1 22
BITMAP
0700
0F80
1FC0
0DC0
01C0
1FC0
7FC0
FFC0
E1C0
E1C0
FFC0
7FC0
3FC0
ENDCHAR
STARTCHAR 00AB
ENCODING 171
SWIDTH 280 0
DWIDTH 14 0
BBX 12 17 1 8
BITMAP
0660
0EF0
1EE0
1DE0
3DC0
7B80
7780
F700
EF00
F700
7780
3B80
3DC0
1DE0
1EE0
0E70
0660
ENDCHAR
STARTCHAR 00AC
ENCODING 172
SWIDTH 440 0
DWIDTH 22 0
BBX 20 10 1 11
BITMAP
FFFFF0
FFFFF0
FFFFF0
000070
000070
000070
000070
000070
000070
000070
ENDCHAR
STARTCHAR 00AD
ENCODING 173
SWIDTH 220 0
DWIDTH 11 0
BBX 9 3 1 11
BITMAP
FF80
FF80
FF80
ENDCHAR
STARTCHAR 00AE
ENCODING 174
SWIDTH 360 0
DWIDTH 18 0
BBX 16 16 1 18
BITMAP
07E0
1FF8
3C3C
700E
67C6
EFF7
C633
C6F3
C6C3
C6C3
E6C7
6FF6
7F7E
3C3C
1FF8
07E0
ENDCHAR
STARTCHAR 00AF
ENCODING 175
SWIDTH 220 0
DWIDTH 11 0
BBX 9 3 1 25
BITMAP
FF80
FF80
7F00
ENDCHAR
STARTCHAR 00B0
ENCODING 176
SWIDTH 180 0
DWIDTH 9 0
BBX 7 7 1 29
BITMAP
38
7C
FE
EE
FE
7C
38
ENDCHAR
STARTCHAR 00B1
ENCODING 177
SWIDTH 480 0
DWIDTH 24 0
BBX 22 28 1 1
BITMAP
007000
007000
007000
007000
007000
007000
007000
007000
007000
FFFFF8
FFFFF8
FFFFF8
007000
007000
007000
007000
007000
007000
007000
007000
007000
000000
000000
000000
000000
FFFFF8
FFFFFC
FFFFF8
ENDCHAR
STARTCHAR 00B2
ENCODING 178
SWIDTH 340 0
DWIDTH 17 0
BBX 15 19 1 17
BITMAP
07E0
1FF8
3FFC
783C
F00E
E00E
E00E
E00E
E01C
003C
0078
00F0
01E0
03C0
0780
0F0C
1FFC
1FFC
1FF0
ENDCHAR
STARTCHAR 00B3
ENCODING 179
SWIDTH 360 0
DWIDTH 18 0
BBX 17 20 0 16
BITMAP
07E000
0FF000
1FF800
3C3800
187800
01F000
01FC00
01FE00
001F00
000700
000780
000380
000380
000380
600780
F00F00
7C1F00
3FFE00
1FF800
07E000
ENDCHAR
STARTCHAR 00B4
ENCODING 180
SWIDTH 360 0
DWIDTH 18 0
BBX 16 11 1 24
BITMAP
0002
0007
001F
007E
01FC
07F0
1FC0
7F00
FC00
F000
4000
ENDCHAR
STARTCHAR 00B5
ENCODING 181
SWIDTH 520 0
DWIDTH 26 0
BBX 25 33 1 -10
BITMAP
7E07E000
7E07E000
3E07E000
0E00E000
0E00E000
0E00E000
0E00E000
0E00E000
0E00E000
0E00E000
0E00E000
0E00E000
0E00E000
0E00E000
0E00E000
0E00E000
0E00E000
0E00E000
0F01E000
0F83E300
0FFFFF80
0FFF7F00
0E7C1E00
0E000000
0E000000
0E000000
0E000000
0E000000
0E000000
1E000000
7C000000
F8000000
70000000
ENDCHAR
STARTCHAR 00B6
ENCODING 182
SWIDTH 740 0
DWIDTH 37 0
BBX 35 48 1 -14
BITMAP
0007FF8000
003FFFF000
00FFFFF800
01FFFBFE00
07FFFB9F00
0FFFFB8F80
1FFFFB8780
1FFFFB83C0
3FFFFB81C0
3FFFFB81E0
7FFFFB80E0
7FFFFB80E0
7FFFFB80E0
FFFFFB80E0
FFFFFB80E0
FFFFFB81C0
FFFFFB81C0
FFFFFB83C0
FFFFFB8780
7FFFFB8700
7FFFFB8200
7FFFFB8000
3FFFFB8000
3FFFFB8000
1FFFFB8000
0FFFFB8000
0FFFFB8000
07FFFB8000
01FFFB8000
00FFFB8000
003FFB8000
0007FB8000
00003B8000
00003B8000
00003B8000
00003B8000
00003B8000
00003B8000
00003B8000
00003B8000
00003B8000
00003B8000
00003B8000
00003B8000
00003B8000
00003B8000
00003B8000
00003B8000
ENDCHAR
STARTCHAR 00B7
ENCODING 183
SWIDTH 160 0
DWIDTH 8 0
BBX 6 6 1 12
BITMAP
78
FC
FC
FC
FC
78
ENDCHAR
STARTCHAR 00B8
ENCODING 184
SWIDTH 260 0
DWIDTH 13 0
BBX 11 14 1 -11
BITMAP
0700
0700
0F00
0E00
0E00
1F80
1FC0
1FE0
00E0
00E0
41E0
FFC0
FFC0
3F00
ENDCHAR
STARTCHAR 00B9
ENCODING 185
SWIDTH 180 0
DWIDTH 9 0
BBX 6 19 1 17
BITMAP
30
78
78
F8
F8
F8
38
38
38
38
38
38
38
38
38
38
7C
7C
7C
ENDCHAR
STARTCHAR 00BA
ENCODING 186
SWIDTH 340 0
DWIDTH 17 0
BBX 15 14 1 22
BITMAP
07C0
1FF0
3FF8
783C
F01E
E00E
E00E
E00E
E00E
F01E
783C
3FF8
1FF0
07C0
ENDCHAR
STARTCHAR 00BB
ENCODING 187
SWIDTH 280 0
DWIDTH 14 0
BBX 12 17 1 8
BITMAP
C600
EF00
F700
7780
3B80
3DC0
1DE0
0EE0
0E70
1EE0
1DE0
3DC0
3B80
7780
F700
EF00
C600
ENDCHAR
STARTCHAR 00BC
ENCODING 188
SWIDTH 640 0
DWIDTH 32 0
BBX 31 36 1 -1
BITMAP
0000000C
1C00001E
3C00003C
7C00007C
FC0000F8
FC0000F0
FC0001E0
1C0003C0
1C000780
1C000F80
1C001F00
1C001E00
1C003DC0
1C0079C0
1C00F1C0
1C01F7C0
1C03EFC0
1C03DFC0
1C079FC0
1C0F3DC0
1C1E3DC0
3F3E79C0
3F7C79C0
3E78F1C0
00F0F1C0
01E1E1F8
03C1C1F8
07C3FFF8
0F83FFF8
0F03FFF0
1E0001C0
3C0001C0
780003E0
F80007E0
F00003E0
60000000
ENDCHAR
STARTCHAR 00BD
ENCODING 189
SWIDTH 800 0
DWIDTH 40 0
BBX 38 36 1 0
BITMAP
0000001C00
1C00003C00
3C00003C00
7C00007800
FC0000F000
FC0001E000
FC0003E000
1C0007C000
1C00078000
1C000F0000
1C001E0000
1C003C0000
1C007C3F00
1C00F9FFE0
1C00F3FFF0
1C01E7C0F8
1C03CF0038
1C079E001C
1C0F9C001C
1C1F1C001C
1C1E1C001C
3F3C1C003C
7F78000078
3EF00000F0
01F00001F0
03E00003E0
03C0000FC0
0780001F00
0F00003E00
1E00007C00
3E0000F800
7C0001F038
780003FFFC
F00007FFF8
E00003FFF0
4000000000
ENDCHAR
STARTCHAR 00BE
ENCODING 190
SWIDTH 820 0
DWIDTH 41 0
BBX 39 36 1 -2
BITMAP
0000000004
07E000000E
1FF800001E
3FFC00003E
7C1C00003C
301C000078
003C0000F0
01F80001E0
01FE0003E0
01FF8007C0
000FC00780
0003E00F00
0000E01EE0
0000F03CE0
0000707CE0
000070FBE0
000070F7E0
0000F1EFE0
E000E3CFE0
F001E79EE0
7C0FCF9EE0
3FFF9F3CE0
1FFE1E3CE0
03F83C78E0
00007878E0
0000F0F0FC
0001F0E0FC
0003E1FFFC
0003C1FFFC
000781FFF8
000F0000E0
001E0000E0
003E0001F0
007C0003F0
00780001F0
0070000000
ENDCHAR
STARTCHAR 00BF
ENCODING 191
SWIDTH 520 0
DWIDTH 26 0
BBX 24 34 1 -8
BITMAP
003800
003800
003800
003800
003800
003800
003800
001000
003800
003800
003800
003800
003800
003800
01F800
07F800
1FE000
3F0000
7C0000
780000
F00030
E0007C
E0003E
E0001E
E0000F
E00007
700007
700007
78000F
3E001E
1F80FC
0FFFF8
03FFE0
00FF00
ENDCHAR
STARTCHAR 00C0
ENCODING 192
SWIDTH 860 0
DWIDTH 43 0
BBX 41 45 1 0
BITMAP
01C000000000
01F000000000
01FC00000000
007F00000000
001FC0000000
0007F0000000
0001FC000000
00007E000000
00001E000000
000004000000
000000000000
00007FC00000
0007FFF80000
001FFFFE0000
007F803F0000
00FC000F0000
03F000078000
07C000038000
0F8000038000
1E0000038000
1E0000038000
3C0000038000
380000038000
700000038000
700000038000
F00000038000
E00000038000
E00000038000
E00000038000
E00000038000
E00000038000
E00000038000
E00000038000
F00000038000
700000038000
700000078000
3800000F8000
3C00001F8000
1E00003F8000
0F0000FB8000
07C001F3C000
03F80FE1E380
01FFFF81FF80
007FFE00FF00
000FF0003E00
ENDCHAR
STARTCHAR 00C1
ENCODING 193
SWIDTH 860 0
DWIDTH 43 0
BBX 41 45 1 0
BITMAP
00000001C000
00000007C000
0000001F8000
0000007E0000
000001F80000
000007F00000
00001FC00000
00003F000000
00003C000000
000010000000
000000000000
00007FC00000
0007FFF80000
001FFFFE0000
007F803F0000
00FC000F0000
03F000078000
07C000038000
0F8000038000
1E0000038000
1E0000038000
3C0000038000
380000038000
700000038000
700000038000
F00000038000
E00000038000
E00000038000
E00000038000
E00000038000
E00000038000
E00000038000
E00000038000
F00000038000
700000038000
700000078000
3800000F8000
3C00001F8000
1E00003F8000
0F0000FB8000
07C001F3C000
03F80FE1E380
01FFFF81FF80
007FFE00FF00
000FF0003E00
ENDCHAR
STARTCHAR 00C2
ENCODING 194
SWIDTH 860 0
DWIDTH 43 0
BBX 41 45 1 0
BITMAP
000008000000
00001C000000
00003E000000
00007F800000
0000F7C00000
0001E3E00000
0003C1F00000
000F80780000
000F003C0000
000E001C0000
000000000000
00007FC00000
0007FFF80000
001FFFFE0000
007F803F0000
00FC000F0000
03F000078000
07C000038000
0F8000038000
1E0000038000
1E0000038000
3C0000038000
380000038000
700000038000
700000038000
F00000038000
E00000038000
E00000038000
E00000038000
E00000038000
E00000038000
E00000038000
E00000038000
F00000038000
700000038000
700000078000
3800000F8000
3C00001F8000
1E00003F8000
0F0000FB8000
07C001F3C000
03F80FE1E380
01FFFF81FF80
007FFE00FF00
000FF0003E00
ENDCHAR
STARTCHAR 00C3
ENCODING 195
SWIDTH 860 0
DWIDTH 43 0
BBX 41 41 1 0
BITMAP
0003F00C0000
000FFC3C0000
001FFFFC0000
001E1FF80000
001C03E00000
000000000000
000000000000
00007FC00000
0007FFF80000
001FFFFE0000
007F803F0000
00FC000F0000
03F000078000
07C000038000
0F8000038000
1E0000038000
1E0000038000
3C0000038000
380000038000
700000038000
700000038000
F00000038000
E00000038000
E00000038000
E00000038000
E00000038000
E00000038000
E00000038000
E00000038000
F00000038000
700000038000
700000078000
3800000F8000
3C00001F8000
1E00003F8000
0F0000FB8000
07C001F3C000
03F80FE1E380
01FFFF81FF80
007FFE00FF00
000FF0003E00
ENDCHAR
STARTCHAR 00C4
ENCODING 196
SWIDTH 860 0
DWIDTH 43 0
BBX 41 39 1 0
BITMAP
000073000000
0000F7800000
0000F7800000
000073000000
000000000000
00007FC00000
0007FFF80000
001FFFFE0000
007F803F0000
00FC000F0000
03F000078000
07C000038000
0F8000038000
1E0000038000
1E0000038000
3C0000038000
380000038000
700000038000
700000038000
F00000038000
E00000038000
E00000038000
E00000038000
E00000038000
E00000038000
E00000038000
E00000038000
F00000038000
700000038000
700000078000
3800000F8000
3C00001F8000
1E00003F8000
0F0000FB8000
07C001F3C000
03F80FE1E380
01FFFF81FF80
007FFE00FF00
000FF0003E00
ENDCHAR
STARTCHAR 00C5
ENCODING 197
SWIDTH 860 0
DWIDTH 43 0
BBX 41 47 1 0
BITMAP
00001E000000
00007F800000
0000FFC00000
0000E1C00000
0001C0E00000
0001C0E00000
0001C0E00000
0001C0E00000
0000E1C00000
0000FFC00000
00007F800000
00001E000000
000000000000
00007FC00000
0007FFF80000
001FFFFE0000
007F803F0000
00FC000F0000
03F000078000
07C000038000
0F8000038000
1E0000038000
1E0000038000
3C0000038000
380000038000
700000038000
700000038000
F00000038000
E00000038000
E00000038000
E00000038000
E00000038000
E00000038000
E00000038000
E00000038000
F00000038000
700000038000
700000078000
3800000F8000
3C00001F8000
1E00003F8000
0F0000FB8000
07C001F3C000
03F80FE1E380
01FFFF81FF80
007FFE00FF00
000FF0003E00
ENDCHAR
STARTCHAR 00C6
ENCODING 198
SWIDTH 760 0
DWIDTH 38 0
BBX 36 34 1 0
BITMAP
000FFFFC00
000FFFFC00
000FFFFE00
0001F00E00
0003F00E00
0003F00600
0007F00000
0007700000
0007700000
000E700000
000E700000
001C700000
001C700000
003C700000
0038700000
0038700000
0070700000
0070700000
00E0700000
00E0700000
01E0700000
01C0700000
01C0700000
0380700000
03FFFFF000
07FFFFF000
07FFFFF060
0F007000F0
0E007000E0
0E007001E0
1C007001C0
FF01FFFFC0
FF01FFFF80
FF01FFFF80
ENDCHAR
STARTCHAR 00C7
ENCODING 199
SWIDTH 740 0
DWIDTH 37 0
BBX 35 45 1 -10
BITMAP
0003FE0000
001FFFC000
007FFFF000
01FE01FC00
03F0003E00
07C0001F00
0F00000780
1E00000380
1C000001C0
3C000001C0
78000000E0
70000000E0
70000000E0
F0000000E0
E0000000E0
E0000000E0
E0000001C0
E0000003C0
E000000780
E000000F00
E000001F00
E000003C00
7000001800
7000000000
7800000000
3800000000
3C00000000
1E00000000
0F00000000
0780000000
03E0000000
01FC000000
007F800000
003FC00000
003B800000
0038000000
0070000000
007E000000
007F000000
002F800000
0003800000
0107800000
07FF000000
03FE000000
01FC000000
ENDCHAR
STARTCHAR 00C8
ENCODING 200
SWIDTH 460 0
DWIDTH 23 0
BBX 22 46 1 0
BITMAP
400000
F00000
F80000
7E0000
1F8000
07E000
01F800
007E00
001F00
000F00
000100
000000
7FFF00
7FFF00
7FFF80
1C0380
1C0380
1C0180
1C0000
1C0000
1C0000
1C0000
1C0000
1C0000
1C0000
1C0000
1C0000
1C0000
1C0000
1C0000
1C0000
1C0000
1C0000
1C0000
1C0000
1C0000
1FFC00
1FFC00
1FFC18
1C003C
1C0038
1C0078
1C0070
7FFFF0
7FFFE0
7FFFE0
ENDCHAR
STARTCHAR 00C9
ENCODING 201
SWIDTH 520 0
DWIDTH 26 0
BBX 23 45 2 0
BITMAP
00000E
00003E
0000FE
0003F8
000FE0
003F80
00FE00
01F800
01E000
008000
000000
FFFE00
FFFE00
FFFE00
380700
380700
380700
380000
380000
380000
380000
380000
380000
380000
380000
380000
380000
380000
380000
380000
380000
380000
380000
380000
380000
3FF800
3FF800
3FF830
380078
380070
3800F0
3800E0
FFFFE0
FFFFC0
FFFFC0
ENDCHAR
STARTCHAR 00CA
ENCODING 202
SWIDTH 460 0
DWIDTH 23 0
BBX 21 45 2 0
BITMAP
00E000
01F000
03FC00
07BE00
0F1F00
3E0780
7C03C0
7801E0
7000E0
000000
000000
FFFE00
FFFE00
FFFE00
380700
380700
380700
380000
380000
380000
380000
380000
380000
380000
380000
380000
380000
380000
380000
380000
380000
380000
380000
380000
380000
3FF800
3FF800
3FF830
380078
380070
3800F0
3800E0
FFFFE0
FFFFC0
FFFFC0
ENDCHAR
STARTCHAR 00CB
ENCODING 203
SWIDTH 460 0
DWIDTH 23 0
BBX 21 39 2 0
BITMAP
063000
0F7800
0F7800
063000
000000
FFFE00
FFFE00
FFFE00
380700
380700
380700
380000
380000
380000
380000
380000
380000
380000
380000
380000
380000
380000
380000
380000
380000
380000
380000
380000
380000
3FF800
3FF800
3FF830
380078
380070
3800F0
3800E0
FFFFE0
FFFFC0
FFFFC0
ENDCHAR
STARTCHAR 00CC
ENCODING 204
SWIDTH 200 0
DWIDTH 10 0
BBX 19 45 -10 0
BITMAP
E00000
F80000
FE0000
3F8000
0FE000
03F800
00FE00
003F00
000F00
000200
000000
001FE0
001FE0
001FE0
000700
000700
000700
000700
000700
000700
000700
000700
000700
000700
000700
000700
000700
000700
000700
000700
000700
000700
000700
000700
000700
000700
000700
000700
000700
000700
000700
000700
001FC0
001FE0
001FE0
ENDCHAR
STARTCHAR 00CD
ENCODING 205
SWIDTH 200 0
DWIDTH 10 0
BBX 18 45 1 0
BITMAP
0001C0
0007C0
001FC0
007F00
01FC00
07F000
1FC000
3F0000
3C0000
100000
000000
FF0000
FF0000
FF0000
380000
380000
380000
380000
380000
380000
380000
380000
380000
380000
380000
380000
380000
380000
380000
380000
380000
380000
380000
380000
380000
380000
380000
380000
380000
380000
380000
380000
FF0000
FF0000
FF0000
ENDCHAR
STARTCHAR 00CE
ENCODING 206
SWIDTH 200 0
DWIDTH 10 0
BBX 19 44 -5 0
BITMAP
00E000
01F000
03F800
0F9E00
1E0F00
3C0780
7803C0
F001E0
6000C0
000000
03FC00
03FC00
03FC00
00E000
00E000
00E000
00E000
00E000
00E000
00E000
00E000
00E000
00E000
00E000
00E000
00E000
00E000
00E000
00E000
00E000
00E000
00E000
00E000
00E000
00E000
00E000
00E000
00E000
00E000
00E000
00E000
03FC00
03FC00
03FC00
ENDCHAR
STARTCHAR 00CF
ENCODING 207
SWIDTH 200 0
DWIDTH 10 0
BBX 9 39 0 0
BITMAP
6300
F780
F780
6300
0000
7F80
7F80
7F80
1C00
1C00
1C00
1C00
1C00
1C00
1C00
1C00
1C00
1C00
1C00
1C00
1C00
1C00
1C00
1C00
1C00
1C00
1C00
1C00
1C00
1C00
1C00
1C00
1C00
1C00
1C00
1C00
7F80
7F80
7F80
ENDCHAR
STARTCHAR 00D0
ENCODING 208
SWIDTH 820 0
DWIDTH 41 0
BBX 39 34 1 0
BITMAP
007FFC0000
07FFFFE000
1FFFFFF800
3FC003FE00
3B80003F80
03800007C0
03800003E0
03800000F0
0380000078
0380000038
038000003C
038000001C
038000001E
038000000E
038000000E
038000000E
038000000E
7FFC00000E
7FFE00000E
3FFC00000E
038000001E
038000001C
038000003C
0380000038
0380000078
03800000F0
03800001E0
03800007C0
0380001F80
FB8000FF00
FF800FFC00
3FFFFFF000
0FFFFF8000
00FFF00000
ENDCHAR
STARTCHAR 00D1
ENCODING 209
SWIDTH 480 0
DWIDTH 24 0
BBX 22 41 1 0
BITMAP
07C018
1FF83C
3FFFF8
783FF0
300FC0
000000
F00000
F801FC
7E01FC
1F81FC
1FE070
1FF870
1CFE70
1C3F70
1C0FF0
1C03F0
1C00F0
1C0070
1C0070
1C0070
1C0070
1C0070
1C0070
1C0070
1C0070
1C0070
1C0070
1C0070
1C0070
1C0070
1C0070
1C0070
1C0070
1C0070
1C0070
1C0070
1C0070
1C0070
7F0070
7F0070
7F0070
ENDCHAR
STARTCHAR 00D2
ENCODING 210
SWIDTH 760 0
DWIDTH 38 0
BBX 36 46 1 -1
BITMAP
0700000000
07C0000000
07F0000000
01FC000000
007E000000
001F800000
0007E00000
0001F80000
0000780000
0000100000
0003FC0000
001FFF8000
007FFFE000
01FC03F800
03F000FC00
07C0003E00
0F00000F00
1E00000780
1C00000380
3C000003C0
38000001C0
78000001E0
70000000E0
70000000E0
E000000070
E000000070
E000000070
E000000070
E000000070
E000000070
E000000070
E000000070
70000000E0
70000000E0
70000001E0
38000001C0
3C000003C0
1C00000380
1E00000780
0F00000F00
07C0003E00
03E000FC00
01FC03F800
007FFFE000
001FFF8000
0003FC0000
ENDCHAR
STARTCHAR 00D3
ENCODING 211
SWIDTH 760 0
DWIDTH 38 0
BBX 36 46 1 -1
BITMAP
0000000E00
0000003E00
000000FE00
000003F800
000007E000
00001F8000
00007E0000
0001F80000
0001E00000
0000800000
0003FC0000
001FFF8000
007FFFE000
01FC03F800
03F000FC00
07C0003E00
0F00000F00
1E00000780
1C00000380
3C000003C0
38000001C0
78000001E0
70000000E0
70000000E0
E000000070
E000000070
E000000070
E000000070
E000000070
E000000070
E000000070
E000000070
70000000E0
70000000E0
70000001E0
38000001C0
3C000003C0
1C00000380
1E00000780
0F00000F00
07C0003E00
03E000FC00
01FC03F800
007FFFE000
001FFF8000
0003FC0000
ENDCHAR
STARTCHAR 00D4
ENCODING 212
SWIDTH 760 0
DWIDTH 38 0
BBX 36 46 1 -1
BITMAP
0000E00000
0001F80000
0003FC0000
0007FE0000
000F9F0000
001F0F8000
003E07C000
007C03E000
007801E000
0060006000
0003FC0000
001FFF8000
007FFFE000
01FC03F800
03F000FC00
07C0003E00
0F00000F00
1E00000780
1C00000380
3C000003C0
38000001C0
78000001E0
70000000E0
70000000E0
E000000070
E000000070
E000000070
E000000070
E000000070
E000000070
E000000070
E000000070
70000000E0
70000000E0
70000001E0
38000001C0
3C000003C0
1C00000380
1E00000780
0F00000F00
07C0003E00
03E000FC00
01FC03F800
007FFFE000
001FFF8000
0003FC0000
ENDCHAR
STARTCHAR 00D5
ENCODING 213
SWIDTH 760 0
DWIDTH 38 0
BBX 36 42 1 -1
BITMAP
001F806000
003FE1E000
007FFFE000
00F0FFC000
00601F0000
0000000000
0003FC0000
001FFF8000
007FFFE000
01FC03F800
03F000FC00
07C0003E00
0F00000F00
1E00000780
1C00000380
3C000003C0
38000001C0
78000001E0
70000000E0
70000000E0
E000000070
E000000070
E000000070
E000000070
E000000070
E000000070
E000000070
E000000070
70000000E0
70000000E0
70000001E0
38000001C0
3C000003C0
1C00000380
1E00000780
0F00000F00
07C0003E00
03E000FC00
01FC03F800
007FFFE000
001FFF8000
0003FC0000
ENDCHAR
STARTCHAR 00D6
ENCODING 214
SWIDTH 760 0
DWIDTH 38 0
BBX 36 41 1 -1
BITMAP
00019C0000
0003DE0000
0003DE0000
00019C0000
0000000000
0003FC0000
001FFF8000
007FFFE000
01FC03F800
03F000FC00
07C0003E00
0F00000F00
1E00000780
1C00000380
3C000003C0
38000001C0
78000001E0
70000000E0
70000000E0
E000000070
E000000070
E000000070
E000000070
E000000070
E000000070
E000000070
E000000070
70000000E0
70000000E0
70000001E0
38000001C0
3C000003C0
1C00000380
1E00000780
0F00000F00
07C0003E00
03E000FC00
01FC03F800
007FFFE000
001FFF8000
0003FC0000
ENDCHAR
STARTCHAR 00D7
ENCODING 215
SWIDTH 400 0
DWIDTH 20 0
BBX 18 18 1 9
BITMAP
E00180
F003C0
780780
7C0F00
3E1E00
1F3C00
0FF800
07F000
03E000
03F000
07F800
0F7C00
1E3E00
3C1F00
780F80
F007C0
E003C0
C00180
ENDCHAR
STARTCHAR 00D8
ENCODING 216
SWIDTH 760 0
DWIDTH 38 0
BBX 36 36 1 -1
BITMAP
0003FC0000
001FFF8380
007FFFE780
01FC03FF00
03F0007F00
07C0003E00
0F00003F00
1E00007F80
1C0000F780
3C0001E3C0
380003E1C0
700003C1E0
70000780E0
70000F00E0
E0001E0070
E0003C0070
E000780070
E000F80070
E000F00070
E001E00070
E003C00070
E007800070
700F0000E0
701E0000E0
783E0000E0
383C0001C0
3C780003C0
1EF0000380
1FE0000780
0FC0000F00
0780003E00
0FE000FC00
0FFC03F800
1E7FFFE000
1C1FFF8000
0003FC0000
ENDCHAR
STARTCHAR 00D9
ENCODING 217
SWIDTH 500 0
DWIDTH 25 0
BBX 23 46 1 -1
BITMAP
700000
7C0000
3F0000
0FC000
03F000
01FC00
007F00
001F80
000780
000100
000000
FE00FE
FE00FE
FE00FE
380038
380038
380038
380038
380038
380038
380038
380038
380038
380038
380038
380038
380038
380038
380038
380038
380038
380038
380038
380038
380038
380038
380038
380038
380038
1C0070
1C0070
1E00F0
0F83E0
07FFC0
03FF80
00FC00
ENDCHAR
STARTCHAR 00DA
ENCODING 218
SWIDTH 500 0
DWIDTH 25 0
BBX 24 46 1 -1
BITMAP
000007
00001F
00007F
0001FC
0007F0
001FC0
007F00
00FC00
00F000
004000
000000
FE00FE
FE00FE
FE00FE
380038
380038
380038
380038
380038
380038
380038
380038
380038
380038
380038
380038
380038
380038
380038
380038
380038
380038
380038
380038
380038
380038
380038
380038
380038
1C0070
1C0070
1E00F0
0F83E0
07FFC0
03FF80
00FC00
ENDCHAR
STARTCHAR 00DB
ENCODING 219
SWIDTH 500 0
DWIDTH 25 0
BBX 23 46 1 -1
BITMAP
003800
007C00
00FE00
01EF00
03C780
0F83E0
1F01F0
3E00F8
3C0078
180030
000000
FE00FE
FE00FE
FE00FE
380038
380038
380038
380038
380038
380038
380038
380038
380038
380038
380038
380038
380038
380038
380038
380038
380038
380038
380038
380038
380038
380038
380038
380038
380038
1C0070
1C0070
1E00F0
0F83E0
07FFC0
03FF80
00FC00
ENDCHAR
STARTCHAR 00DC
ENCODING 220
SWIDTH 520 0
DWIDTH 26 0
BBX 23 39 2 -1
BITMAP
00E600
01EF00
01EF00
00E600
FE00FE
FE00FE
FE00FE
380038
380038
380038
380038
380038
380038
380038
380038
380038
380038
380038
380038
380038
380038
380038
380038
380038
380038
380038
380038
380038
380038
380038
380038
380038
1C0070
1C0070
1E00F0
0F83E0
07FFC0
03FF80
00FE00
ENDCHAR
STARTCHAR 00DD
ENCODING 221
SWIDTH 560 0
DWIDTH 28 0
BBX 26 45 2 0
BITMAP
000000C0
000001C0
000007C0
00001FC0
00007F00
0001FC00
0007F000
001FC000
003F0000
003C0000
00100000
FE00FE00
FE00FE00
FE00FE00
1C007000
1E00F000
0F01E000
0701C000
0783C000
03838000
03C78000
01C70000
01EF0000
00EE0000
00FE0000
007C0000
00380000
00380000
00380000
00380000
00380000
00380000
00380000
00380000
00380000
00380000
00380000
00380000
00380000
00380000
00380000
00380000
00FE0000
00FE0000
00FE0000
ENDCHAR
STARTCHAR 00DE
ENCODING 222
SWIDTH 480 0
DWIDTH 24 0
BBX 22 34 1 0
BITMAP
7F0000
7F0000
7F0000
1C0000
1C0000
1C0000
1C0000
1FFC00
1FFF80
7FFFE0
FC03F0
7C0078
1C003C
1C001C
1C001C
1C001C
1C003C
1C0078
1C03F0
1FFFE0
1FFF80
1FFC00
1C0000
1C0000
1C0000
1C0000
1C0000
1C0000
1C0000
1C0000
1C0000
7F0000
7F0000
7F0000
ENDCHAR
STARTCHAR 00DF
ENCODING 223
SWIDTH 480 0
DWIDTH 24 0
BBX 22 41 1 -8
BITMAP
003F00
00FFC0
01FFF0
03E0F8
078038
07003C
0F001C
0E001C
0E001C
0E001C
FE003C
FE0078
FE00F8
0E03F0
0E07C0
0E1F80
0E3E00
0E7C00
0E7000
0E7000
0E7000
0E7800
0E3C00
0E3E00
0E1F80
0E07C0
0E03E0
0E00E0
0E0070
0E0070
0E0070
0E00F0
0E01E0
0E03E0
0E0FC0
0FFF00
0FFE00
0FF000
0E0000
0E0000
0E0000
ENDCHAR
STARTCHAR 00E0
ENCODING 224
SWIDTH 420 0
DWIDTH 21 0
BBX 19 35 1 0
BITMAP
600000
700000
7C0000
7F0000
1FC000
07F000
01FC00
007F00
001F80
000780
000000
001F00
003F80
007FC0
0071E0
0060E0
0000E0
0000E0
0000E0
0000E0
0000E0
0000E0
01FFE0
0FFFE0
3FFFE0
7E00E0
F000E0
E000E0
E000E0
E000E0
F001E0
7C07E0
3FFFE0
1FFFE0
03F8E0
ENDCHAR
STARTCHAR 00E1
ENCODING 225
SWIDTH 420 0
DWIDTH 21 0
BBX 23 35 1 0
BITMAP
000006
00000E
00003E
0000FE
0003F8
000FE0
003F80
00FE00
01F800
01E000
008000
001F00
003F80
007FC0
0071E0
0060E0
0000E0
0000E0
0000E0
0000E0
0000E0
0000E0
01FFE0
0FFFE0
3FFFE0
7E00E0
F000E0
E000E0
E000E0
E000E0
F001E0
7C07E0
3FFFE0
1FFFE0
03F8E0
ENDCHAR
STARTCHAR 00E2
ENCODING 226
SWIDTH 420 0
DWIDTH 21 0
BBX 22 34 1 0
BITMAP
001E00
003F00
007F80
00FFC0
01E1E0
03C0F0
078078
0F003C
0E001C
000000
001F00
003F80
007FC0
0071E0
0060E0
0000E0
0000E0
0000E0
0000E0
0000E0
0000E0
01FFE0
0FFFE0
3FFFE0
7E00E0
F000E0
E000E0
E000E0
E000E0
F001E0
7C07E0
3FFFE0
1FFFE0
03F8E0
ENDCHAR
STARTCHAR 00E3
ENCODING 227
SWIDTH 400 0
DWIDTH 20 0
BBX 21 30 1 0
BITMAP
07C038
1FF878
3FFFF0
3C3FF0
300FC0
000000
003E00
007F00
00FF80
00E3C0
00C1C0
0001C0
0001C0
0001C0
0001C0
0001C0
0001C0
03FFC0
1FFFC0
3FFFC0
7C01C0
F001C0
E001C0
E001C0
E001C0
F003C0
7C0FC0
3FFFC0
1FFFC0
03F1C0
ENDCHAR
STARTCHAR 00E4
ENCODING 228
SWIDTH 400 0
DWIDTH 20 0
BBX 18 29 1 0
BITMAP
003180
007BC0
007BC0
003180
000000
003E00
007F00
00FF80
00E3C0
00C1C0
0001C0
0001C0
0001C0
0001C0
0001C0
0001C0
03FFC0
1FFFC0
3FFFC0
7C01C0
F001C0
E001C0
E001C0
E001C0
F003C0
7C0FC0
3FFFC0
1FFFC0
03F1C0
ENDCHAR
STARTCHAR 00E5
ENCODING 229
SWIDTH 400 0
DWIDTH 20 0
BBX 18 37 1 0
BITMAP
003C00
00FF00
01FF80
01C380
03C3C0
0381C0
0381C0
0381C0
03C3C0
01C380
01FF80
00FF00
003C00
003E00
007F00
00FF80
00E3C0
00C1C0
0001C0
0001C0
0001C0
0001C0
0001C0
0001C0
03FFC0
1FFFC0
3FFFC0
7C01C0
F001C0
E001C0
E001C0
E001C0
F003C0
7C0FC0
3FFFC0
1FFFC0
03F1C0
ENDCHAR
STARTCHAR 00E6
ENCODING 230
SWIDTH 920 0
DWIDTH 46 0
BBX 44 24 1 0
BITMAP
003E003FC000
007F01FFF800
00FF87FFFE00
01E3DFC07F00
00C1FE000F80
0001FC0003C0
0001F00001E0
0001F00000E0
0001E0000070
0001C0000070
0001C0000070
03FFC0000070
1FFFC0000070
3FFFC00000E0
7C01FFFFFFE0
F001FFFFFFC0
E001FFFFFFC0
E001F8000000
E001FC000000
F003BE000000
780F9FC00000
3FFF07FF8000
1FFE01FF8000
03F8003F8000
ENDCHAR
STARTCHAR 00E7
ENCODING 231
SWIDTH 560 0
DWIDTH 28 0
BBX 26 35 1 -11
BITMAP
003FC000
01FFF800
07FFFC00
0FE07F00
1F000F80
3C0007C0
780003C0
700003C0
70000780
E0000700
E0000300
E0000000
E0000000
E0000000
E0000000
70000000
70000000
38000000
3C000000
1F000000
0FC00000
07FF8000
01FFC000
00FF8000
00E00000
01E00000
01F00000
01F80000
01FC0000
001E0000
000E0000
0C1E0000
1FFC0000
0FF80000
07E00000
ENDCHAR
STARTCHAR 00E8
ENCODING 232
SWIDTH 600 0
DWIDTH 30 0
BBX 28 35 1 0
BITMAP
08000000
1C000000
1F000000
0FC00000
03F00000
01FC0000
007F0000
001FC000
0007E000
0001E000
00004000
003FC000
01FFF800
07FFFE00
0FE03F00
1F000FC0
3C0003C0
380001E0
780000E0
70000070
E0000070
E0000070
E0000070
E0000070
E00000F0
FFFFFFE0
7FFFFFE0
7FFFFFC0
78000000
3C000000
1F000000
0FC00000
07FF8000
01FFC000
003F8000
ENDCHAR
STARTCHAR 00E9
ENCODING 233
SWIDTH 600 0
DWIDTH 30 0
BBX 28 35 1 0
BITMAP
00000080
000001C0
000007C0
00001F80
00007F00
0001FC00
0007F000
001FC000
003F0000
003C0000
00100000
003FC000
01FFF800
07FFFE00
0FE03F00
1F000FC0
3C0003C0
380001E0
780000E0
70000070
E0000070
E0000070
E0000070
E0000070
E00000F0
FFFFFFE0
7FFFFFE0
7FFFFFC0
78000000
3C000000
1F000000
0FC00000
07FF8000
01FFC000
003F8000
ENDCHAR
STARTCHAR 00EA
ENCODING 234
SWIDTH 600 0
DWIDTH 30 0
BBX 28 34 1 0
BITMAP
00070000
000F8000
001FC000
003FE000
0078F000
00F07800
01E03E00
03C01F00
07800F00
03000200
003FC000
01FFF800
07FFFE00
0FE03F00
1F000FC0
3C0003C0
380001E0
780000E0
70000070
E0000070
E0000070
E0000070
E0000070
E00000F0
FFFFFFE0
7FFFFFE0
7FFFFFC0
78000000
3C000000
1F000000
0FC00000
07FF8000
01FFC000
003F8000
ENDCHAR
STARTCHAR 00EB
ENCODING 235
SWIDTH 600 0
DWIDTH 30 0
BBX 28 29 1 0
BITMAP
0018C000
003DE000
003DE000
001CC000
00000000
003FC000
01FFF800
07FFFE00
0FE03F00
1F000FC0
3C0003C0
380001E0
780000E0
70000070
E0000070
E0000070
E0000070
E0000070
E00000F0
FFFFFFE0
7FFFFFE0
7FFFFFC0
78000000
3C000000
1F000000
0FC00000
07FF8000
01FFC000
003F8000
ENDCHAR
STARTCHAR 00EC
ENCODING 236
SWIDTH 180 0
DWIDTH 9 0
BBX 20 35 -11 0
BITMAP
700000
F80000
7E0000
1F8000
07E000
01F800
007E00
001F00
000F00
000000
000000
0007C0
000FC0
0007C0
0001C0
0001C0
0001C0
0001C0
0001C0
0001C0
0001C0
0001C0
0001C0
0001C0
0001C0
0001C0
0001C0
0001C0
0001C0
0001C0
0001C0
0001C0
0007F0
0007F0
0007F0
ENDCHAR
STARTCHAR 00ED
ENCODING 237
SWIDTH 180 0
DWIDTH 9 0
BBX 18 35 1 0
BITMAP
000380
000FC0
003F80
007E00
01F800
07E000
1F8000
3E0000
780000
000000
000000
7C0000
FC0000
7C0000
1C0000
1C0000
1C0000
1C0000
1C0000
1C0000
1C0000
1C0000
1C0000
1C0000
1C0000
1C0000
1C0000
1C0000
1C0000
1C0000
1C0000
1C0000
7F0000
7F0000
7F0000
ENDCHAR
STARTCHAR 00EE
ENCODING 238
SWIDTH 180 0
DWIDTH 9 0
BBX 19 34 -5 0
BITMAP
00E000
01F000
03F800
07BE00
1F1F00
3E0F80
7C07C0
F801E0
E000E0
000000
01F000
03F000
01F000
007000
007000
007000
007000
007000
007000
007000
007000
007000
007000
007000
007000
007000
007000
007000
007000
007000
007000
01FC00
01FC00
01FC00
ENDCHAR
STARTCHAR 00EF
ENCODING 239
SWIDTH 180 0
DWIDTH 9 0
BBX 9 29 0 0
BITMAP
6700
F780
F780
6700
0000
3E00
7E00
3E00
0E00
0E00
0E00
0E00
0E00
0E00
0E00
0E00
0E00
0E00
0E00
0E00
0E00
0E00
0E00
0E00
0E00
0E00
3F80
3F80
3F80
ENDCHAR
STARTCHAR 00F0
ENCODING 240
SWIDTH 480 0
DWIDTH 24 0
BBX 22 36 1 -1
BITMAP
01C040
03F1E0
01FFE0
003FC0
003F00
00FF80
01FBC0
03E1C0
0180E0
0000F0
000070
000070
00FC78
07FF38
0FFFF8
1F03F8
3C01FC
78007C
70007C
70003C
F0003C
E0001C
E0001C
E0001C
E0001C
E0001C
E00038
700038
700038
780070
3C00F0
1E01E0
1F07C0
0FFF80
03FF00
00FC00
ENDCHAR
STARTCHAR 00F1
ENCODING 241
SWIDTH 420 0
DWIDTH 21 0
BBX 19 30 1 0
BITMAP
1F00E0
7FE1E0
FFFFE0
F0FFC0
E03F00
000000
F83000
FC7800
FCF800
1DF800
1FF800
1FFC00
1F9C00
1F1C00
1E1C00
1C1C00
1C1C00
1C0E00
1C0E00
1C0E00
1C0E00
1C0E00
1C0700
1C0700
1C0700
1C0700
1C0700
7E03E0
7F03E0
7E03E0
ENDCHAR
STARTCHAR 00F2
ENCODING 242
SWIDTH 560 0
DWIDTH 28 0
BBX 26 36 1 -1
BITMAP
10000000
38000000
3E000000
1F800000
07E00000
01F80000
007E0000
003F8000
000FC000
0003C000
00008000
007F8000
01FFE000
07FFF800
0FC0FC00
1F003E00
3C000F00
38000700
70000780
70000380
F00003C0
E00001C0
E00001C0
E00001C0
E00001C0
E00001C0
E00003C0
70000380
70000780
38000700
3C000F00
1F003E00
0FC0FC00
07FFF800
01FFE000
007F8000
ENDCHAR
STARTCHAR 00F3
ENCODING 243
SWIDTH 560 0
DWIDTH 28 0
BBX 26 36 1 -1
BITMAP
00000380
00000F80
00003F80
0000FE00
0003F800
000FE000
003F8000
007E0000
00780000
00200000
00000000
007F8000
01FFE000
07FFF800
0FC0FC00
1F003E00
3C000F00
38000700
70000780
70000380
F00003C0
E00001C0
E00001C0
E00001C0
E00001C0
E00001C0
E00003C0
70000380
70000780
38000700
3C000F00
1F003E00
0FC0FC00
07FFF800
01FFE000
007F8000
ENDCHAR
STARTCHAR 00F4
ENCODING 244
SWIDTH 560 0
DWIDTH 28 0
BBX 26 35 1 -1
BITMAP
000E0000
001F0000
003F8000
007FC000
01F3E000
03E1F000
07C0F800
0F803C00
0F001E00
0E000C00
007F8000
01FFE000
07FFF800
0FC0FC00
1F003E00
3C000F00
38000700
70000780
70000380
F00003C0
E00001C0
E00001C0
E00001C0
E00001C0
E00001C0
E00003C0
70000380
70000780
38000700
3C000F00
1F003E00
0FC0FC00
07FFF800
01FFE000
007F8000
ENDCHAR
STARTCHAR 00F5
ENCODING 245
SWIDTH 560 0
DWIDTH 28 0
BBX 26 31 1 -1
BITMAP
01F00E00
07FE1E00
0FFFFE00
0F0FFC00
0E03F000
00000000
007F8000
01FFE000
07FFF800
0FC0FC00
1F003E00
3C000F00
38000700
70000780
70000380
F00003C0
E00001C0
E00001C0
E00001C0
E00001C0
E00001C0
E00003C0
70000380
70000780
38000700
3C000F00
1F003E00
0FC0FC00
07FFF800
01FFE000
007F8000
ENDCHAR
STARTCHAR 00F6
ENCODING 246
SWIDTH 560 0
DWIDTH 28 0
BBX 26 30 1 -1
BITMAP
00318000
007BC000
007BC000
00318000
00000000
007F8000
01FFE000
07FFF800
0FC0FC00
1F003E00
3C000F00
38000700
70000780
70000380
F00003C0
E00001C0
E00001C0
E00001C0
E00001C0
E00001C0
E00003C0
70000380
70000780
38000700
3C000F00
1F003E00
0FC0FC00
07FFF800
01FFE000
007F8000
ENDCHAR
STARTCHAR 00F7
ENCODING 247
SWIDTH 400 0
DWIDTH 20 0
BBX 18 14 1 10
BITMAP
00C000
01E000
01E000
00C000
000000
FFFFC0
FFFFC0
FFFFC0
000000
000000
00C000
01E000
01E000
00C000
ENDCHAR
STARTCHAR 00F8
ENCODING 248
SWIDTH 560 0
DWIDTH 28 0
BBX 26 25 1 -1
BITMAP
007F03C0
01FFE7C0
07FFFFC0
0FC0FF80
1F001E00
3C003E00
78007F00
7800F780
7001E380
E003C3C0
E00781C0
E00F01C0
E01E01C0
E03C01C0
E07801C0
F0F003C0
71E00380
7BC00780
3F800700
3F000F00
1E003E00
7FC0FC00
FFFFF800
F9FFE000
F07F8000
ENDCHAR
STARTCHAR 00F9
ENCODING 249
SWIDTH 580 0
DWIDTH 29 0
BBX 27 35 1 0
BITMAP
18000000
1C000000
1F000000
1FC00000
07F00000
01FC0000
007E0000
001F8000
0007E000
0001E000
00004000
7801F800
FC01F800
7C01F800
1C003800
1C003800
0E003800
0E003800
0E003800
0E003800
0F003800
07003800
07003800
07003800
07003800
03803800
03803800
03803800
03803800
01C07800
01C07800
01F0FCC0
00FFFFE0
007FDFC0
001F0780
ENDCHAR
STARTCHAR 00FA
ENCODING 250
SWIDTH 580 0
DWIDTH 29 0
BBX 27 35 1 0
BITMAP
00000300
00000700
00001F80
00007F00
0000FC00
0003F000
000FC000
003F0000
007C0000
00F00000
00000000
7801F800
FC01F800
7C01F800
1C003800
1C003800
0E003800
0E003800
0E003800
0E003800
0F003800
07003800
07003800
07003800
07003800
03803800
03803800
03803800
03803800
01C07800
01C07800
01F0FCC0
00FFFFE0
007FDFC0
001F0780
ENDCHAR
STARTCHAR 00FB
ENCODING 251
SWIDTH 580 0
DWIDTH 29 0
BBX 27 34 1 0
BITMAP
00700000
00FC0000
01FE0000
03DF0000
07878000
0F03C000
3E01E000
3C00F000
38007000
00000000
7801F800
FC01F800
7C01F800
1C003800
1C003800
0E003800
0E003800
0E003800
0E003800
0F003800
07003800
07003800
07003800
07003800
03803800
03803800
03803800
03803800
01C07800
01C07800
01F0FCC0
00FFFFE0
007FDFC0
001F0780
ENDCHAR
STARTCHAR 00FC
ENCODING 252
SWIDTH 580 0
DWIDTH 29 0
BBX 27 29 1 0
BITMAP
00670000
00F78000
00F78000
00670000
00000000
7801F800
FC01F800
7C01F800
1C003800
1C003800
0E003800
0E003800
0E003800
0E003800
0F003800
07003800
07003800
07003800
07003800
03803800
03803800
03803800
03803800
01C07800
01C07800
01F0FCC0
00FFFFE0
007FDFC0
001F0780
ENDCHAR
STARTCHAR 00FD
ENCODING 253
SWIDTH 560 0
DWIDTH 28 0
BBX 27 48 1 -13
BITMAP
00000040
000000E0
000003E0
00000FC0
00003F00
0000FC00
0003F000
000FE000
001F8000
001E0000
00080000
00000000
FE001FC0
FE003FC0
FE001FC0
1C001E00
1E003C00
0F003800
07007800
07807000
0380E000
03C1E000
01E1C000
00E38000
00F70000
0077F000
003FFC00
003FFE00
003E1F00
00780780
00300380
00000380
000001C0
000001C0
001FC1C0
007FE1C0
01FFE1C0
03F001C0
07800380
07000380
0F000780
0E000F00
0E001E00
0E007C00
0F83F800
07FFF000
03FFC000
00FE0000
ENDCHAR
STARTCHAR 00FE
ENCODING 254
SWIDTH 620 0
DWIDTH 31 0
BBX 29 49 1 -15
BITMAP
3E000000
7F000000
FF800000
E3C00000
C1C00000
01C00000
01C00000
01C00000
01C00000
01C00000
01C7F800
01DFFE00
01FFFF00
01FC0FC0
01F003C0
01E001E0
01C000F0
01C00070
01C00070
01C00038
01C00038
01C00038
01C00038
01C00038
01C00038
01C00070
01C00070
01C000F0
01C001E0
01C007C0
01C01F80
01FFFF00
01FFFC00
01FFE000
01C00000
01C00000
01C00000
01C00000
01C00000
01C00000
01C00000
01C00000
01C00000
03800000
03800000
07000000
0E000000
1C000000
08000000
ENDCHAR
STARTCHAR 00FF
ENCODING 255
SWIDTH 560 0
DWIDTH 28 0
BBX 26 41 1 -13
BITMAP
00398000
007BC000
007BC000
00398000
1C000380
FE001FC0
FE003FC0
FE001F80
1C001E00
1E003C00
0F003800
07007800
07807000
0380E000
03C1E000
01E1C000
00E38000
00F70000
0077F000
003FFC00
003FFE00
003E1F00
00780780
00300380
00000380
000001C0
000001C0
001FC1C0
007FE1C0
01FFE1C0
03F001C0
07800380
07000380
0F000780
0E000F00
0E001E00
0E007C00
0F83F800
07FFF000
03FFC000
00FE0000
ENDCHAR
STARTCHAR 0131
ENCODING 305
SWIDTH 180 0
DWIDTH 9 0
BBX 8 24 0 0
BITMAP
7C
FC
7C
1C
1C
1C
1C
1C
1C
1C
1C
1C
1C
1C
1C
1C
1C
1C
1C
1C
1C
7F
7F
7F
ENDCHAR
STARTCHAR 0141
ENCODING 321
SWIDTH 380 0
DWIDTH 19 0
BBX 17 34 1 0
BITMAP
3F8000
7FC000
3F8000
0E0000
0E0000
0E0000
0E0000
0E0000
0E0000
0E0000
0E0000
0E0000
0E0000
0E0000
0E0000
0E0800
0E3C00
0FFC00
0FF800
3FC000
FF0000
FE0000
6E0000
0E0000
0E0000
0E0000
0E0180
0E0380
0E0380
0E0700
0E0F00
3FFE00
7FFE00
3FFC00
ENDCHAR
STARTCHAR 0142
ENCODING 322
SWIDTH 340 0
DWIDTH 17 0
BBX 14 34 1 0
BITMAP
3E00
7F00
FF80
E3C0
C1C0
01C0
01C0
01C0
01C0
01C0
01C0
01C0
01C0
01DC
01FC
01F8
07E0
1FC0
1FC0
19C0
01C0
01C0
01C0
01C0
01C0
01C0
01C0
01C0
01C0
01C0
01C0
07F0
07F0
07F0
ENDCHAR
STARTCHAR 0152
ENCODING 338
SWIDTH 1000 0
DWIDTH 50 0
BBX 48 36 1 -1
BITMAP
0003FC000000
001FFF9FFFC0
007FFFFFFFC0
01FC03FFFFE0
03E000FF00E0
07C0003F00E0
0F00001F0060
1E00000F0000
1C0000070000
3C0000070000
380000070000
700000070000
700000070000
700000070000
E00000070000
E00000070000
E00000070000
E00000070000
E00000070000
E00000070000
E00000070000
E00000070000
700000070000
700000070000
700000070000
38000007FF00
3C000007FF80
1C000007FF06
1E00000F000F
0F00001F000E
07C0003F001E
03E000FF001C
01FC03FFFFFC
007FFFFFFFF8
001FFF9FFFF8
0003FC000000
ENDCHAR
STARTCHAR 0153
ENCODING 339
SWIDTH 940 0
DWIDTH 47 0
BBX 45 25 1 -1
BITMAP
007F80000000
01FFE07FF800
07FFF9FFFE00
0FC0FFF8FF80
1F001FC007C0
3C000F0001E0
38001E0000F0
78003C000070
700038000038
F00070000038
E00070000038
E00070000038
E00070000038
E00070000078
E0007FFFFFF0
E0007FFFFFF0
70003FFFFFE0
78003C000000
38001E000000
3C000F000000
1F001FE00000
0FC0FFFFC000
07FFF8FFE000
01FFE03FC000
007F80000000
ENDCHAR
STARTCHAR 0160
ENCODING 352
SWIDTH 640 0
DWIDTH 32 0
BBX 31 44 1 0
BITMAP
001C1C00
001C1C00
001E3C00
000E3800
000F7800
00077000
0007F000
0003E000
0003E000
00008000
000FF000
00FFFE00
03FFFFC0
0FF00FE0
1F8001F0
3E000078
7800003C
7000001C
F000001E
E000000E
E000000E
E000000E
E000000E
E000000E
7000000C
78000000
3C000000
3E000000
1F000000
07800000
03C00000
01E00000
00F00000
00700000
00780000
00380000
00380000
00380000
00380000
E0700000
F0F00000
7FE00000
3FC00000
1F000000
ENDCHAR
STARTCHAR 0161
ENCODING 353
SWIDTH 480 0
DWIDTH 24 0
BBX 23 35 1 0
BITMAP
030300
078780
038700
03CF00
01CE00
01FE00
00FC00
00FC00
007800
003000
000000
007F80
03FFF0
0FFFF8
1F807C
3E001E
38000E
78000E
700000
700000
700000
780000
3C0000
1F0000
0F8000
07C000
01C000
01E000
00E000
00E000
00E000
E1E000
FFC000
FF8000
3E0000
ENDCHAR
STARTCHAR 0178
ENCODING 376
SWIDTH 500 0
DWIDTH 25 0
BBX 23 38 1 0
BITMAP
00E700
00EF00
00EF00
00E700
FE00FE
FE00FE
FE00FE
1C0070
1E00F0
0E01E0
0701C0
0783C0
038380
03C780
01C700
01EF00
00EE00
00FE00
007C00
003800
003800
003800
003800
003800
003800
003800
003800
003800
003800
003800
003800
003800
003800
003800
003800
00FE00
00FE00
00FE00
ENDCHAR
STARTCHAR 017D
ENCODING 381
SWIDTH 440 0
DWIDTH 22 0
BBX 20 44 1 0
BITMAP
018180
03C1C0
01C380
01E780
00E700
00FF00
007E00
007E00
003C00
001800
07FFE0
0FFFE0
0FFFE0
1E01C0
1C03C0
0C0380
000780
000700
000F00
000E00
001E00
001C00
003C00
003800
007800
007000
00F000
00E000
01E000
01C000
03C000
038000
078000
070000
0F0000
0E0000
1E0060
1C0070
3C00E0
3801E0
7801E0
7FFFC0
FFFF80
7FFF80
ENDCHAR
STARTCHAR 017E
ENCODING 382
SWIDTH 360 0
DWIDTH 18 0
BBX 16 34 1 0
BITMAP
180C
1C1C
1E3C
0E38
0F78
0770
07F0
03E0
03E0
0080
3FFC
7FFE
7FFE
E03C
6038
0078
0070
00F0
00E0
01E0
01C0
03C0
0380
0780
0F00
0E00
1E00
1C00
3C07
3807
7807
7FFF
FFFF
7FFE
ENDCHAR
STARTCHAR 0192
ENCODING 402
SWIDTH 360 0
DWIDTH 18 0
BBX 24 48 -7 -15
BITMAP
00001E
00007F
0000FE
0001F0
0001C0
000380
000380
000700
000700
000F00
000E00
000E00
000E00
000E00
007F80
007F80
007F80
001C00
001C00
001C00
001C00
003C00
003800
003800
003800
003800
003800
007800
007000
007000
007000
007000
007000
007000
00F000
00E000
00E000
00E000
01E000
01C000
03C000
038000
078000
0F0000
1E0000
3C0000
780000
F00000
ENDCHAR
STARTCHAR 02C6
ENCODING 710
SWIDTH 400 0
DWIDTH 20 0
BBX 18 9 1 24
BITMAP
01E000
03F000
07F800
0FBC00
1F1E00
3C0F00
7807C0
F003C0
E001C0
ENDCHAR
STARTCHAR 02C7
ENCODING 711
SWIDTH 260 0
DWIDTH 13 0
BBX 11 10 1 24
BITMAP
E0E0
E0E0
F1E0
71C0
7BC0
3B80
3F80
1F00
1F00
0400
ENDCHAR
STARTCHAR 02C9
ENCODING 713
SWIDTH 220 0
DWIDTH 11 0
BBX 9 3 1 25
BITMAP
FF80
FF80
7F00
ENDCHAR
STARTCHAR 02D8
ENCODING 728
SWIDTH 360 0
DWIDTH 18 0
BBX 16 7 1 26
BITMAP
E007
E007
F00F
7C3E
3FFC
1FF8
07E0
ENDCHAR
STARTCHAR 02D9
ENCODING 729
SWIDTH 120 0
DWIDTH 6 0
BBX 4 4 1 25
BITMAP
60
F0
F0
60
ENDCHAR
STARTCHAR 02DA
ENCODING 730
SWIDTH 280 0
DWIDTH 14 0
BBX 12 13 1 24
BITMAP
0F00
3FC0
7FE0
78E0
F0F0
E070
E070
E070
F0F0
70E0
7FE0
3FC0
0F00
ENDCHAR
STARTCHAR 02DB
ENCODING 731
SWIDTH 220 0
DWIDTH 11 0
BBX 10 10 1 -8
BITMAP
1C00
3E00
7C00
F000
E000
E000
E180
7FC0
7F80
3F00
ENDCHAR
STARTCHAR 02DC
ENCODING 732
SWIDTH 420 0
DWIDTH 21 0
BBX 19 5 1 24
BITMAP
1F00E0
7FC1E0
FFFFE0
F0FFC0
E03F00
ENDCHAR
STARTCHAR 02DD
ENCODING 733
SWIDTH 260 0
DWIDTH 13 0
BBX 11 10 1 25
BITMAP
0CC0
0EE0
1DE0
3DC0
3B80
7F80
7700
FF00
EE00
CE00
ENDCHAR
STARTCHAR 037E
ENCODING 894
SWIDTH 160 0
DWIDTH 8 0
BBX 6 23 1 -5
BITMAP
78
FC
FC
FC
FC
78
00
00
00
00
00
00
00
70
F8
FC
FC
FC
7C
1C
F8
F8
E0
ENDCHAR
STARTCHAR 0394
ENCODING 916
SWIDTH 680 0
DWIDTH 34 0
BBX 32 35 1 1
BITMAP
00018000
0003C000
0003C000
0007E000
0007E000
000FF000
000E7000
001E7000
001C3800
001C3800
00381C00
00381C00
00700E00
00700E00
00E00F00
00E00700
01E00780
01C00380
03C00380
038001C0
038001C0
070000E0
070000E0
0E000070
0E000070
1E000078
1C000038
3C000038
3800001C
3800001C
7000000E
7000000E
FFFFFFFF
FFFFFFFF
FFFFFFFF
ENDCHAR
STARTCHAR 03A9
ENCODING 937
SWIDTH 780 0
DWIDTH 39 0
BBX 37 35 1 0
BITMAP
0003FE0000
001FFFC000
007FFFF000
01FC03FC00
03F0007E00
07C0001F00
0F00000780
1E000003C0
1C000001C0
3C000001E0
38000000E0
38000000F0
7000000070
7000000070
7000000070
7000000070
7000000070
7000000070
7000000070
38000000E0
38000000E0
3C000001E0
1E000001C0
1F000007C0
0F80000F80
07E0003F00
03F800FE00
00FC01F800
007E03F000
C01E03C038
E00E038038
E00E038038
FFFE03FFF8
FFFE03FFF8
FFFE03FFF8
ENDCHAR
STARTCHAR 03BC
ENCODING 956
SWIDTH 500 0
DWIDTH 25 0
BBX 24 33 1 -10
BITMAP
7E0FC0
7E0FC0
7E0FC0
0E01C0
0E01C0
0E01C0
0E01C0
0E01C0
0E01C0
0E01C0
0E01C0
0E01C0
0E01C0
0E01C0
0E01C0
0E01C0
0E01C0
0E01C0
0F03C0
0F87C6
0FFFFF
0FFEFE
0E783C
0E0000
0E0000
0E0000
0E0000
0E0000
0E0000
1E0000
7C0000
F80000
F00000
ENDCHAR
STARTCHAR 03C0
ENCODING 960
SWIDTH 580 0
DWIDTH 29 0
BBX 27 25 1 -1
BITMAP
0FFFFF80
1FFFFFC0
3FFFFF80
79C07000
F1C07000
E1C07000
E1C07000
41C07000
01C07000
01C07000
01C07000
01C07000
01C07000
01C07000
01C07000
01C07000
01C07000
03C07000
03807000
038070E0
078070E0
0F0079E0
1F003FC0
1E003FC0
1C000F00
ENDCHAR
STARTCHAR 2013
ENCODING 8211
SWIDTH 520 0
DWIDTH 26 0
BBX 24 3 1 11
BITMAP
FFFFFF
FFFFFF
FFFFFF
ENDCHAR
STARTCHAR 2014
ENCODING 8212
SWIDTH 1020 0
DWIDTH 51 0
BBX 49 3 1 11
BITMAP
FFFFFFFFFFFF00
FFFFFFFFFFFF80
FFFFFFFFFFFF00
ENDCHAR
STARTCHAR 2018
ENCODING 8216
SWIDTH 180 0
DWIDTH 9 0
BBX 7 10 0 26
BITMAP
1C
3C
78
F0
F8
FE
FE
FE
7E
3C
ENDCHAR
STARTCHAR 2019
ENCODING 8217
SWIDTH 180 0
DWIDTH 9 0
BBX 7 10 1 26
BITMAP
38
7C
FE
FE
7E
3E
1E
7C
78
70
ENDCHAR
STARTCHAR 201A
ENCODING 8218
SWIDTH 180 0
DWIDTH 9 0
BBX 7 10 1 -5
BITMAP
38
7C
FE
FE
7E
3E
1E
7C
78
70
ENDCHAR
STARTCHAR 201C
ENCODING 8220
SWIDTH 320 0
DWIDTH 16 0
BBX 13 10 1 26
BITMAP
1C70
3CF0
79E0
F3C0
FFF0
FFF8
FFF8
FFF8
7FF8
3CF0
ENDCHAR
STARTCHAR 201D
ENCODING 8221
SWIDTH 320 0
DWIDTH 16 0
BBX 14 10 1 26
BITMAP
3870
7CF8
FFFC
FFFC
7EFC
3E7C
1E3C
7CF8
78F0
70E0
ENDCHAR
STARTCHAR 201E
ENCODING 8222
SWIDTH 320 0
DWIDTH 16 0
BBX 14 10 1 -5
BITMAP
3870
7CF8
FFFC
FFFC
7EFC
3E7C
1E3C
7CF8
78F0
70E0
ENDCHAR
STARTCHAR 2020
ENCODING 8224
SWIDTH 340 0
DWIDTH 17 0
BBX 16 41 1 -7
BITMAP
07E0
07E0
07C0
03C0
03C0
03C0
03C0
E187
FDBF
FFFF
FFFF
FDBF
C183
0180
0180
03C0
03C0
03C0
03C0
03C0
03C0
03C0
03C0
03C0
03C0
03C0
03C0
03C0
03C0
03C0
03C0
03C0
03C0
01C0
0180
0180
0180
0180
0180
0180
0180
ENDCHAR
STARTCHAR 2021
ENCODING 8225
SWIDTH 340 0
DWIDTH 17 0
BBX 15 41 1 -7
BITMAP
07C0
07C0
07C0
07C0
03C0
0380
0380
C386
FFFE
FFFE
FFFE
F9BE
8382
0380
0380
0380
0380
0380
0380
03C0
07C0
03C0
0380
0380
0380
0380
0380
0380
8382
F9BE
FFFE
FFFE
FFFE
E386
0380
0380
07C0
07C0
07C0
07C0
07C0
ENDCHAR
STARTCHAR 2022
ENCODING 8226
SWIDTH 200 0
DWIDTH 10 0
BBX 8 8 1 9
BITMAP
3C
7E
FF
FF
FF
FF
7E
3C
ENDCHAR
STARTCHAR 2026
ENCODING 8230
SWIDTH 440 0
DWIDTH 22 0
BBX 20 7 1 -1
BITMAP
3060C0
78F1E0
FDFBF0
FDFBF0
FDFBF0
78F1E0
3060C0
ENDCHAR
STARTCHAR 2030
ENCODING 8240
SWIDTH 1080 0
DWIDTH 54 0
BBX 52 34 1 0
BITMAP
03FFFFC0000000
0FFFFFC0000000
1FFFFFC0000000
3C3C0380000000
781C0380000000
700E0700000000
700E0700000000
E0070F00000000
E0070E00000000
E0071E00000000
E0071C00000000
E0073C00000000
E0073800000000
E00778F8007C00
700E73FE01FF00
700E77FF03FF80
781EEF8F87C7C0
3C3CEE038701C0
1FF9FC01CE00E0
0FF1DC01CE00E0
07E3FC01FE00F0
0003B800FC0070
0007B800FC0070
00073800FC0070
000F3800FC0070
000E3800FC0070
000E3801FC00F0
001C1C01CE00E0
001C1C01CE00E0
00380E038701C0
00380F0F8787C0
007807FF03FF80
007003FE01FF00
007000F8007C00
ENDCHAR
STARTCHAR 2039
ENCODING 8249
SWIDTH 180 0
DWIDTH 9 0
BBX 7 17 1 8
BITMAP
06
0E
1E
1C
3C
78
70
F0
E0
F0
70
38
3C
1C
1E
0E
06
ENDCHAR
STARTCHAR 203A
ENCODING 8250
SWIDTH 180 0
DWIDTH 9 0
BBX 7 17 1 8
BITMAP
C0
E0
F0
70
38
3C
1C
0E
0E
1E
1C
3C
38
70
F0
E0
C0
ENDCHAR
STARTCHAR 2044
ENCODING 8260
SWIDTH 620 0
DWIDTH 31 0
BBX 30 36 1 -1
BITMAP
0000001C
0000003C
0000003C
00000078
000000F0
000001E0
000003E0
000007C0
00000780
00000F00
00001E00
00003E00
00007C00
00007800
0000F000
0001E000
0003C000
0007C000
000F8000
000F0000
001E0000
003C0000
00780000
00F80000
01F00000
01E00000
03C00000
07800000
0F000000
1F000000
3E000000
3C000000
78000000
F0000000
E0000000
E0000000
ENDCHAR
STARTCHAR 20AC
ENCODING 8364
SWIDTH 820 0
DWIDTH 41 0
BBX 39 35 1 -1
BITMAP
00003FE00C
0003FFFC0E
000FFFFF1E
001FC03FFC
007E0007F8
00F80001F8
01F00000F0
01E00000E0
03C00001E0
07800001C0
07000003C0
0700000380
0E00000100
0E00000000
FFFFFFF800
FFFFFFFC00
FFFFFFF800
FFFFFFE000
FFFFFFF000
FFFFFFE000
0E00000000
0E00000000
0E00000000
0700000000
0700000000
0780000000
03C0000000
01E0000000
01F0000000
00F8000000
007E000000
001FC00000
000FF80000
0003F80000
0000F80000
ENDCHAR
STARTCHAR 2122
ENCODING 8482
SWIDTH 640 0
DWIDTH 32 0
BBX 30 18 1 17
BITMAP
0003801C
7FF3C03C
FFFBC03C
E739E078
C719F0F8
0701F9F8
0701FFF8
0701DFB8
0701CF38
0701C638
0701C038
0701C038
0701C038
0701C038
0701C038
0F81C038
1FC7F0FC
0F83E07C
ENDCHAR
STARTCHAR 2126
ENCODING 8486
SWIDTH 780 0
DWIDTH 39 0
BBX 37 35 1 0
BITMAP
0003FE0000
001FFFC000
007FFFF000
01FC03FC00
03F0007E00
07C0001F00
0F00000780
1E000003C0
1C000001C0
3C000001E0
38000000E0
38000000F0
7000000070
7000000070
7000000070
7000000070
7000000070
7000000070
7000000070
38000000E0
38000000E0
3C000001E0
1E000001C0
1F000007C0
0F80000F80
07E0003F00
03F800FE00
00FC01F800
007E03F000
C01E03C038
E00E038038
E00E038038
FFFE03FFF8
FFFE03FFF8
FFFE03FFF8
ENDCHAR
STARTCHAR 2202
ENCODING 8706
SWIDTH 500 0
DWIDTH 25 0
BBX 23 35 1 0
BITMAP
003FC0
00FFE0
03FDF0
07C078
0F003C
0E001C
00001C
00001E
00000E
00000E
00000E
003F0E
00FFEE
03FFFE
07E07E
0F803E
1F001E
1E001C
3C000C
38001C
70001C
700018
F00038
E00038
E00070
E00070
E000E0
E001E0
E001C0
700380
780F00
3C3E00
3FFC00
0FF800
03C000
ENDCHAR
STARTCHAR 2206
ENCODING 8710
SWIDTH 680 0
DWIDTH 34 0
BBX 32 35 1 1
BITMAP
00018000
0003C000
0003C000
0007E000
0007E000
000FF000
000E7000
001E7000
001C3800
001C3800
00381C00
00381C00
00700E00
00700E00
00E00F00
00E00700
01E00780
01C00380
03C00380
038001C0
038001C0
070000E0
070000E0
0E000070
0E000070
1E000078
1C000038
3C000038
3800001C
3800001C
7000000E
7000000E
FFFFFFFF
FFFFFFFF
FFFFFFFF
ENDCHAR
STARTCHAR 220F
ENCODING 8719
SWIDTH 780 0
DWIDTH 39 0
BBX 37 44 1 -9
BITMAP
3FFFFFFFF0
7FFFFFFFF0
3FFFFFFFF0
0380000E00
0380000E00
0380000E00
0380000E00
0380000E00
0380000E00
0380000E00
0380000E00
0380000E00
0380000E00
0380000E00
0380000E00
0380000E00
0380000E00
0380000E00
0380000E00
0380000E00
0380000E00
0380000E00
0380000E00
0380000E00
0380000E00
0380000E00
0380000E00
0380000E00
0380000E00
0380000E00
0380000E00
0380000E00
0380000E00
0380000E00
0380000E00
0380000E00
0380000E00
0380000E00
0380000E00
0380000E00
0380000E00
7FFC01FFF0
FFFE03FFF8
7FFC01FFF0
ENDCHAR
STARTCHAR 2211
ENCODING 8721
SWIDTH 600 0
DWIDTH 30 0
BBX 28 44 1 -9
BITMAP
FFFFFFF0
FFFFFFF0
FFFFFFF0
78000070
38000070
1C000070
1E000070
0E000070
07000070
07800070
03800000
01C00000
01E00000
00F00000
00700000
00780000
003C0000
001C0000
000E0000
000F0000
00070000
00038000
00038000
00070000
000F0000
000E0000
001C0000
003C0000
00780000
00700000
00F00000
01E00000
01C00000
03C00000
07800070
07000070
0E000070
1E000070
1C000070
38000070
78000070
FFFFFFF0
FFFFFFF0
FFFFFFF0
ENDCHAR
STARTCHAR 2212
ENCODING 8722
SWIDTH 480 0
DWIDTH 24 0
BBX 22 3 1 16
BITMAP
FFFFF8
FFFFFC
FFFFF8
ENDCHAR
STARTCHAR 2215
ENCODING 8725
SWIDTH 640 0
DWIDTH 32 0
BBX 30 36 1 -1
BITMAP
0000000C
0000001C
0000003C
00000078
000000F8
000001F0
000001E0
000003C0
00000780
00000F00
00001F00
00003E00
00003C00
00007800
0000F000
0001E000
0003E000
0007C000
00078000
000F0000
001E0000
003C0000
007C0000
00F80000
00F00000
01E00000
03C00000
07800000
0F800000
1F000000
1E000000
3C000000
78000000
F0000000
F0000000
E0000000
ENDCHAR
STARTCHAR 2219
ENCODING 8729
SWIDTH 160 0
DWIDTH 8 0
BBX 6 6 1 12
BITMAP
78
FC
FC
FC
FC
78
ENDCHAR
STARTCHAR 221A
ENCODING 8730
SWIDTH 680 0
DWIDTH 34 0
BBX 32 44 1 -10
BITMAP
000000FF
000001FF
000001FF
000001C0
000001C0
000001C0
000001C0
00000380
00000380
00000380
00000380
00000380
00000380
00000700
00000700
00000700
00000700
0E000700
3F000700
FF000E00
FF800E00
E3800E00
03C00E00
01C00E00
01E00E00
00E01C00
00F01C00
00701C00
00781C00
00381C00
003C1C00
001C3800
001E3800
000E3800
000F3800
00073800
0007B800
0003F000
0003F000
0001F000
0001F000
0000F000
0000F000
00006000
ENDCHAR
STARTCHAR 221E
ENCODING 8734
SWIDTH 940 0
DWIDTH 47 0
BBX 46 23 0 7
BITMAP
000000007C00
00FC0003FF00
07FF000FFFC0
0FFFC01F03E0
1F03E03E00F0
3C00F0780070
780078700078
70003CF00038
70001DE0001C
E0001FC0001C
E0000F80001C
E0000780001C
E00007C0001C
E0000FC0001C
E0001FE0003C
70003CF00038
700038780078
7800783C00F0
3C01F01F03E0
1F03E00FFFC0
0FFFC007FF80
07FF0001FE00
00FC00000000
ENDCHAR
STARTCHAR 222B
ENCODING 8747
SWIDTH 340 0
DWIDTH 17 0
BBX 15 44 1 -9
BITMAP
0078
01FC
01FE
03CE
0384
0380
0380
0380
0380
0380
0380
0380
0380
0380
0380
0380
0380
0380
0380
0380
0380
0380
0380
0380
0380
0380
0380
0380
0380
0380
0380
0380
0380
0380
0380
0380
0380
0380
0380
4380
E780
FF00
7F00
3C00
ENDCHAR
STARTCHAR 2248
ENCODING 8776
SWIDTH 640 0
DWIDTH 32 0
BBX 30 22 1 7
BITMAP
0000001C
03E0001C
0FFC003C
1FFF0038
3C1FE0F0
7803FFF0
F000FFC0
E0001F00
E0000000
40000000
00000000
FFFFFFFC
FFFFFFFC
FFFFFFFC
00000000
00000000
00000000
00000000
00000000
FFFFFFFC
FFFFFFFC
FFFFFFFC
ENDCHAR
STARTCHAR 2260
ENCODING 8800
SWIDTH 620 0
DWIDTH 31 0
BBX 30 34 0 1
BITMAP
00000180
000003C0
00000380
00000780
00000700
00000E00
00001E00
00001C00
00003C00
00003800
00007800
7FFFFFFC
FFFFFFFC
7FFFFFFC
0001C000
0003C000
00038000
00078000
00070000
7FFFFFFC
FFFFFFFC
7FFFFFFC
003C0000
00380000
00780000
00700000
00E00000
01E00000
01C00000
03C00000
03800000
07800000
07000000
02000000
ENDCHAR
STARTCHAR 2264
ENCODING 8804
SWIDTH 560 0
DWIDTH 28 0
BBX 26 28 1 1
BITMAP
000001C0
00000FC0
00003F80
0000FE00
0003F800
001FE000
007F8000
01FC0000
07F00000
1FC00000
7F000000
F8000000
FE000000
3F800000
0FE00000
03FC0000
00FF0000
001FC000
0007F000
0001FE00
00007F80
00000FC0
000003C0
00000000
00000000
FFFFFFC0
FFFFFFC0
FFFFFFC0
ENDCHAR
STARTCHAR 2265
ENCODING 8805
SWIDTH 560 0
DWIDTH 28 0
BBX 26 28 1 0
BITMAP
E0000000
F8000000
FE000000
3FC00000
0FF00000
01FC0000
007F0000
001FC000
0007F800
0000FE00
00003F80
00000FC0
00001FC0
00007F00
0001FC00
000FF000
003FC000
00FE0000
03F80000
1FE00000
7F800000
FC000000
F0000000
40000000
00000000
FFFFFF80
FFFFFFC0
FFFFFF80
ENDCHAR
STARTCHAR 25CA
ENCODING 9674
SWIDTH 480 0
DWIDTH 24 0
BBX 22 37 1 -2
BITMAP
003000
003800
007800
00FC00
00FE00
01EE00
01CF00
03C700
078780
070380
0F03C0
0E01E0
1E00E0
1C00F0
3C0070
780078
700038
F0003C
E0001C
E0001C
70003C
780038
380070
1C0070
1C00E0
0E01E0
0E01C0
0703C0
078380
038700
01CF00
01CE00
00FE00
00FC00
007800
003800
003000
ENDCHAR
STARTCHAR FB01
ENCODING 64257
SWIDTH 500 0
DWIDTH 25 0
BBX 23 34 1 0
BITMAP
001F80
007FE0
01FFF0
03E078
07803C
07001C
0F000E
0E000E
0E000E
0E000E
FFFFC0
FFFFC0
FFFFC0
0E01C0
0E01C0
0E01C0
0E01C0
0E01C0
0E01C0
0E01C0
0E01C0
0E01C0
0E01C0
0E01C0
0E01C0
0E01C0
0E01C0
0E01C0
0E01C0
0E01C0
0E01C0
3F87F0
3F87F0
3F87F0
ENDCHAR
STARTCHAR FB02
ENCODING 64258
SWIDTH 460 0
DWIDTH 23 0
BBX 21 34 1 0
BITMAP
003F00
00FF80
01FFC0
03E1E0
0780E0
0700E0
0F00E0
0E00E0
0E00E0
0E00E0
FFE0E0
FFF0E0
FFE0E0
0E00E0
0E00E0
0E00E0
0E00E0
0E00E0
0E00E0
0E00E0
0E00E0
0E00E0
0E00E0
0E00E0
0E00E0
0E00E0
0E00E0
0E00E0
0E00E0
0E00E0
0E00E0
3F83F8
3F83F8
3F83F8
ENDCHAR
ENDFONT
